<?xml version="1.0" encoding="UTF-8"?>
<!DOCTYPE svg PUBLIC "-//W3C//DTD SVG 1.1//EN" "http://www.w3.org/Graphics/SVG/1.1/DTD/svg11.dtd">
<!-- Creator: CorelDRAW 2020 (64-Bit) -->
<svg xmlns="http://www.w3.org/2000/svg" xml:space="preserve" width="37.0348mm" height="54.2624mm" version="1.1" style="shape-rendering:geometricPrecision; text-rendering:geometricPrecision; image-rendering:optimizeQuality; fill-rule:evenodd; clip-rule:evenodd"
viewBox="0 0 1313.77 1924.89"
 xmlns:xlink="http://www.w3.org/1999/xlink"
 xmlns:xodm="http://www.corel.com/coreldraw/odm/2003">
 <defs>
  <style type="text/css">
   <![CDATA[
    .fil0 {fill:none;fill-rule:nonzero}
    .fil1 {fill:black;fill-rule:nonzero}
   ]]>
  </style>
 </defs>
 <g id="Capa_x0020_1">
  <metadata id="CorelCorpID_0Corel-Layer"/>
  <g id="_1328881252784">
   <path class="fil0" d="M226 1765.5c4.45,4.86 9.77,8.68 15.95,11.47 6.18,2.78 13.1,4.16 20.74,4.16 7.64,0 14.59,-1.39 20.85,-4.16 6.25,-2.78 11.6,-6.6 16.05,-11.47 4.45,-4.86 7.89,-10.63 10.32,-17.3 2.43,-6.67 3.65,-13.97 3.65,-21.89 0,-7.37 -1.22,-14.25 -3.65,-20.64 -2.44,-6.39 -5.87,-11.99 -10.32,-16.78 -4.45,-4.8 -9.79,-8.55 -16.05,-11.26 -6.25,-2.71 -13.2,-4.07 -20.85,-4.07 -7.64,0 -14.56,1.36 -20.74,4.07 -6.19,2.71 -11.5,6.46 -15.95,11.26 -4.45,4.8 -7.89,10.39 -10.32,16.78 -2.44,6.4 -3.65,13.27 -3.65,20.64 0,7.92 1.22,15.22 3.65,21.89 2.43,6.67 5.86,12.44 10.32,17.3z"/>
   <polygon class="fil0" points="831.38,1744.86 877.25,1744.86 854.52,1684.82 "/>
   <path class="fil0" d="M696.29 1717.13c4.03,-0.28 7.74,-1.11 11.15,-2.5 3.41,-1.39 6.18,-3.47 8.34,-6.25 2.15,-2.78 3.23,-6.67 3.23,-11.67 0,-4.59 -0.97,-8.23 -2.92,-10.94 -1.94,-2.71 -4.45,-4.8 -7.51,-6.26 -3.05,-1.45 -6.46,-2.4 -10.22,-2.81 -3.75,-0.42 -7.37,-0.63 -10.84,-0.63l-18.76 -0 0 41.49 15.85 0c3.76,-0.01 7.64,-0.15 11.68,-0.42z"/>
   <polygon class="fil1" points="279.23,1417.42 469.16,1264.16 205.62,1051.55 205.62,1366.41 274.02,1421.63 "/>
   <polygon class="fil1" points="1108.13,788.02 517.95,1264.16 505.77,1274.04 493.59,1283.92 298.45,1441.31 688.66,1441.31 700.84,1431.51 713.09,1421.63 1108.13,1102.79 "/>
   <polygon class="fil1" points="279.23,1023.44 469.16,870.19 205.62,657.59 205.62,972.44 274.09,1027.58 "/>
   <polygon class="fil1" points="700.84,1037.46 713.02,1027.58 1108.13,708.82 1108.13,394.05 517.95,870.19 505.77,880.07 493.52,889.87 298.45,1047.26 688.66,1047.26 "/>
   <polygon class="fil1" points="279.23,629.4 469.16,476.23 205.62,263.62 205.62,578.39 274.02,633.61 "/>
   <polygon class="fil1" points="688.66,653.3 700.84,643.49 713.09,633.61 1108.13,314.85 1108.13,0 517.95,476.15 505.77,486.03 493.52,495.91 298.45,653.3 "/>
   <path class="fil1" d="M22.01 1783.73c6.88,6.74 15.08,11.95 24.6,15.64 9.52,3.68 19.98,5.52 31.37,5.52 10.84,0 21.05,-2.08 30.64,-6.26 9.59,-4.16 17.72,-10.84 24.39,-20.01l-21.68 -15.42c-4.86,6.26 -10.11,10.81 -15.74,13.65 -5.63,2.85 -11.43,4.27 -17.41,4.27 -7.64,0 -14.56,-1.39 -20.74,-4.16 -6.19,-2.78 -11.5,-6.6 -15.95,-11.47 -4.45,-4.86 -7.89,-10.63 -10.32,-17.3 -2.44,-6.67 -3.65,-13.97 -3.65,-21.89 0,-7.37 1.22,-14.25 3.65,-20.64 2.43,-6.39 5.87,-11.99 10.32,-16.78 4.45,-4.8 9.77,-8.55 15.95,-11.26 6.18,-2.71 13.1,-4.07 20.74,-4.07 5.14,0 10.25,0.97 15.32,2.92 5.07,1.94 10.32,5.84 15.74,11.67l20.43 -15.01c-7.37,-8.48 -15.32,-14.49 -23.87,-18.03 -8.55,-3.55 -17.82,-5.31 -27.83,-5.31 -11.4,0 -21.86,1.84 -31.37,5.52 -9.52,3.68 -17.72,8.93 -24.6,15.74 -6.88,6.81 -12.27,15.04 -16.16,24.7 -3.89,9.66 -5.84,20.39 -5.84,32.21 0,11.53 1.94,22.03 5.84,31.48 3.91,9.45 9.29,17.54 16.18,24.28z"/>
   <path class="fil1" d="M206.5 1783.73c6.88,6.74 15.08,11.95 24.6,15.64 9.52,3.68 19.98,5.52 31.37,5.52 11.53,-0.14 22.1,-2.12 31.69,-5.94 9.59,-3.82 17.86,-9.14 24.81,-15.95 6.95,-6.81 12.37,-14.94 16.26,-24.39 3.89,-9.45 5.84,-19.94 5.84,-31.48 0,-11.81 -1.94,-22.52 -5.84,-32.11 -3.89,-9.59 -9.31,-17.79 -16.26,-24.6 -6.95,-6.81 -15.22,-11.99 -24.81,-15.53 -9.59,-3.55 -20.15,-5.25 -31.69,-5.11 -11.4,0 -21.86,1.84 -31.37,5.52 -9.52,3.68 -17.72,8.93 -24.6,15.74 -6.88,6.81 -12.27,15.04 -16.15,24.7 -3.89,9.66 -5.84,20.39 -5.84,32.21 0,11.53 1.94,22.03 5.84,31.48 3.88,9.46 9.27,17.55 16.15,24.29zm9.17 -78.06c2.43,-6.39 5.87,-11.99 10.32,-16.78 4.45,-4.8 9.77,-8.55 15.95,-11.26 6.18,-2.71 13.1,-4.07 20.74,-4.07 7.64,0 14.59,1.36 20.85,4.07 6.25,2.71 11.6,6.46 16.05,11.26 4.45,4.8 7.89,10.39 10.32,16.78 2.43,6.4 3.65,13.27 3.65,20.64 0,7.92 -1.22,15.22 -3.65,21.89 -2.44,6.67 -5.87,12.44 -10.32,17.3 -4.45,4.86 -9.79,8.68 -16.05,11.47 -6.25,2.78 -13.2,4.16 -20.85,4.16 -7.64,0 -14.56,-1.39 -20.74,-4.16 -6.19,-2.78 -11.5,-6.6 -15.95,-11.47 -4.45,-4.86 -7.89,-10.63 -10.32,-17.3 -2.44,-6.67 -3.65,-13.97 -3.65,-21.89 0.01,-7.37 1.23,-14.25 3.65,-20.64z"/>
   <polygon class="fil1" points="567.25,1801.14 567.25,1653.55 527.64,1653.55 487.83,1756.95 448.42,1653.55 408.4,1653.55 408.4,1801.14 433.42,1801.14 433.42,1678.56 433.83,1678.56 478.65,1801.14 497,1801.14 541.82,1678.56 542.23,1678.56 542.23,1801.14 "/>
   <path class="fil1" d="M668.77 1740.06l18.76 0c7.78,0 15.25,-0.55 22.41,-1.67 7.16,-1.11 13.45,-3.23 18.86,-6.36 5.41,-3.13 9.73,-7.53 12.93,-13.24 3.19,-5.7 4.8,-13.2 4.8,-22.52 0,-8.19 -1.49,-15.04 -4.48,-20.53 -2.99,-5.49 -6.98,-9.87 -11.99,-13.14 -5,-3.26 -10.81,-5.59 -17.41,-6.98 -6.6,-1.39 -13.45,-2.08 -20.53,-2.08l-49.62 0 0 147.59 26.27 0 0 -61.08zm0 -64l18.76 0c3.48,0 7.09,0.21 10.84,0.63 3.75,0.42 7.16,1.36 10.22,2.81 3.05,1.46 5.56,3.55 7.51,6.26 1.94,2.71 2.92,6.36 2.92,10.94 0,5 -1.08,8.9 -3.23,11.67 -2.15,2.78 -4.93,4.86 -8.34,6.25 -3.41,1.39 -7.12,2.23 -11.15,2.5 -4.04,0.28 -7.93,0.42 -11.67,0.42l-15.85 0 0 -41.49 -0.01 0z"/>
   <path class="fil1" d="M866.61 1653.55l-22.72 0 -64.21 147.59 29.39 0 13.34 -33.77 64 0 13.76 33.77 30.02 0 -63.58 -147.59zm-35.23 91.31l23.14 -60.04 22.72 60.04 -45.86 0z"/>
   <polygon class="fil1" points="1121.36,1801.14 1121.36,1653.55 1095.08,1653.55 1095.08,1763.2 1094.67,1763.2 1023.17,1653.55 988.35,1653.55 988.35,1801.14 1014.62,1801.14 1014.62,1687.95 1015.03,1687.95 1088,1801.14 "/>
   <polygon class="fil1" points="1232.05,1801.14 1258.32,1801.14 1258.32,1737.98 1313.77,1653.55 1282.5,1653.55 1245.81,1712.34 1209.53,1653.55 1176.6,1653.55 1232.05,1737.98 "/>
   <polygon class="fil1" points="18.74,1865.76 0.21,1865.76 0.21,1856.61 47.59,1856.61 47.59,1865.76 29.06,1865.76 29.06,1924.33 18.75,1924.33 18.75,1865.76 "/>
   <path class="fil1" d="M149.06 1909.19l-25.69 0 -5.2 15.14 -10.87 0 24.62 -67.73 8.59 0 24.62 67.73 -10.82 0 -5.26 -15.14zm-2.92 -9.11l-9.8 -29.59 -0.17 0 -9.8 29.59 19.78 0z"/>
   <path class="fil1" d="M259.24 1887.04l24.06 0 0 13.79c-0.12,6.79 -2.44,12.47 -6.97,17.05 -4.55,4.56 -10.28,6.89 -17.19,7.02 -5.32,-0.12 -9.77,-1.43 -13.33,-3.91 -3.62,-2.38 -6.26,-5.14 -7.9,-8.27 -0.5,-1.02 -0.94,-2 -1.35,-2.93 -0.38,-0.96 -0.68,-2.17 -0.93,-3.62 -0.47,-2.73 -0.7,-7.96 -0.7,-15.7 0,-7.86 0.23,-13.13 0.7,-15.79 0.5,-2.66 1.26,-4.82 2.27,-6.46 1.64,-3.13 4.27,-5.91 7.9,-8.36 3.56,-2.47 8,-3.75 13.33,-3.81 6.53,0.06 11.86,2 15.98,5.81 4.12,3.84 6.72,8.59 7.8,14.26l-10.87 0c-0.83,-2.73 -2.35,-5.05 -4.55,-6.97 -2.29,-1.82 -5.08,-2.77 -8.36,-2.83 -2.41,0.06 -4.49,0.54 -6.23,1.44 -1.76,0.93 -3.19,2.09 -4.27,3.48 -1.33,1.45 -2.21,3.33 -2.65,5.62 -0.5,2.41 -0.74,6.95 -0.74,13.61 0,6.65 0.24,11.17 0.74,13.52 0.44,2.35 1.32,4.26 2.65,5.71 1.09,1.39 2.51,2.53 4.27,3.39 1.73,1.02 3.81,1.53 6.23,1.53 4,0 7.29,-1.36 9.89,-4.09 2.6,-2.6 3.93,-6.02 4,-10.26l0 -3.53 -13.79 -0 0 -9.7 -0.01 0z"/>
   <polygon class="fil1" points="384.3,1856.61 394.56,1856.61 394.56,1914.63 427.54,1914.63 427.54,1924.34 384.3,1924.34 "/>
   <polygon class="fil1" points="503.8,1856.61 514.07,1856.61 514.07,1924.33 503.8,1924.33 "/>
   <polygon class="fil1" points="594.93,1856.61 604.59,1856.61 635.25,1904.73 635.44,1904.73 635.44,1856.61 645.7,1856.61 645.7,1924.33 635.99,1924.33 605.37,1876.21 605.19,1876.21 605.19,1924.33 594.92,1924.33 594.92,1856.61 "/>
   <polygon class="fil1" points="726.6,1856.61 769.85,1856.61 769.85,1866.32 736.87,1866.32 736.87,1885.64 765.02,1885.64 765.02,1894.75 736.87,1894.75 736.87,1914.63 769.85,1914.63 769.85,1924.34 726.6,1924.34 "/>
   <polygon class="fil1" points="913.06,1894.75 886.27,1894.75 886.27,1924.33 876,1924.33 876,1856.61 886.27,1856.61 886.27,1885.64 913.06,1885.64 913.06,1856.61 923.33,1856.61 923.33,1924.33 913.06,1924.33 "/>
   <polygon class="fil1" points="1024.42,1856.61 1067.67,1856.61 1067.67,1866.32 1034.7,1866.32 1034.7,1885.64 1062.84,1885.64 1062.84,1894.75 1034.7,1894.75 1034.7,1914.63 1067.67,1914.63 1067.67,1924.34 1024.42,1924.34 "/>
   <path class="fil1" d="M1143.92 1856.61l26.43 0c5.64,0 10.23,1.49 13.79,4.46 4.3,3.38 6.55,8.19 6.73,14.44 -0.12,9.2 -4.49,15.46 -13.1,18.77l15.7 30.05 -12.22 -0 -13.98 -28.94 -13.1 0 0 28.94 -10.26 0 0 -67.72 -0.01 0zm10.27 29.68l15.52 0c3.84,-0.06 6.72,-1.18 8.64,-3.35 1.89,-2.01 2.83,-4.49 2.83,-7.43 -0.06,-3.53 -1.2,-6.09 -3.39,-7.67 -1.74,-1.39 -4.24,-2.09 -7.53,-2.09l-16.07 -0 0 20.53z"/>
   <polygon class="fil1" points="1268.53,1856.61 1311.78,1856.61 1311.78,1866.32 1278.8,1866.32 1278.8,1885.64 1306.95,1885.64 1306.95,1894.75 1278.8,1894.75 1278.8,1914.63 1311.78,1914.63 1311.78,1924.34 1268.53,1924.34 "/>
  </g>
 </g>
</svg>
