<?xml version="1.0" encoding="UTF-8"?>
<!DOCTYPE svg PUBLIC "-//W3C//DTD SVG 1.1//EN" "http://www.w3.org/Graphics/SVG/1.1/DTD/svg11.dtd">
<!-- Creator: CorelDRAW 2020 (64-Bit) -->
<svg xmlns="http://www.w3.org/2000/svg" xml:space="preserve" width="44.4657mm" height="49.8736mm" version="1.1" style="shape-rendering:geometricPrecision; text-rendering:geometricPrecision; image-rendering:optimizeQuality; fill-rule:evenodd; clip-rule:evenodd"
viewBox="0 0 4832.1 5419.78"
 xmlns:xlink="http://www.w3.org/1999/xlink"
 xmlns:xodm="http://www.corel.com/coreldraw/odm/2003">
 <defs>
  <style type="text/css">
   <![CDATA[
    .fil0 {fill:none;fill-rule:nonzero}
    .fil1 {fill:black;fill-rule:nonzero}
    .fil2 {fill:white;fill-rule:nonzero}
   ]]>
  </style>
 </defs>
 <g id="Capa_x0020_1">
  <metadata id="CorelCorpID_0Corel-Layer"/>
  <g id="_1328874712528">
   <polygon class="fil0" points="3057.81,4771.27 3226.51,4771.27 3142.93,4554.99 "/>
   <path class="fil0" d="M966.09 4901.92c28.1,0 53.68,-5 76.68,-15.02 22.99,-10.02 42.67,-23.77 59.05,-41.29 16.35,-17.51 29,-38.28 37.96,-62.33 8.94,-24.03 13.42,-50.33 13.42,-78.85 0,-26.54 -4.46,-51.31 -13.42,-74.35 -8.94,-23.02 -21.6,-43.17 -37.96,-60.46 -16.35,-17.27 -36.04,-30.79 -59.05,-40.54 -22.99,-9.76 -48.56,-14.64 -76.68,-14.64 -28.13,0 -53.56,4.88 -76.28,14.64 -22.76,9.76 -42.31,23.28 -58.66,40.54 -16.38,17.27 -29.03,37.43 -37.96,60.46 -8.94,23.04 -13.42,47.81 -13.42,74.35 0,28.53 4.46,54.8 13.42,78.85 8.94,24.03 21.58,44.82 37.96,62.33 16.35,17.53 35.89,31.3 58.66,41.29 22.71,10.02 48.14,15.02 76.28,15.02z"/>
   <path class="fil0" d="M2560.96 4671.39c14.8,-1.01 28.48,-4.01 41.01,-9.01 12.53,-5 22.76,-12.51 30.69,-22.53 7.91,-10.02 11.87,-24.03 11.87,-42.07 0,-16.52 -3.59,-29.66 -10.75,-39.41 -7.15,-9.76 -16.35,-17.27 -27.59,-22.53 -11.24,-5.26 -23.77,-8.64 -37.59,-10.14 -13.79,-1.5 -27.1,-2.25 -39.86,-2.25l-68.99 0 0 149.45 58.28 0c13.78,-0.02 28.09,-0.51 42.94,-1.52z"/>
   <path class="fil1" d="M80.87 4911.31c25.29,24.29 55.44,43.06 90.47,56.33 35,13.26 73.48,19.9 115.39,19.9 39.86,0 77.45,-7.51 112.71,-22.53 35.26,-15.02 65.18,-39.05 89.72,-72.1l-79.74 -55.58c-17.9,22.53 -37.19,38.93 -57.88,49.2 -20.69,10.28 -42.04,15.39 -64.03,15.39 -28.13,0 -53.56,-5 -76.28,-15.02 -22.76,-10.02 -42.31,-23.77 -58.66,-41.29 -16.38,-17.51 -29.03,-38.28 -37.96,-62.33 -8.94,-24.03 -13.42,-50.33 -13.42,-78.85 0,-26.54 4.46,-51.31 13.42,-74.35 8.94,-23.02 21.58,-43.17 37.96,-60.46 16.35,-17.27 35.89,-30.79 58.66,-40.54 22.73,-9.76 48.16,-14.64 76.28,-14.64 18.91,0 37.68,3.52 56.36,10.51 18.65,7.02 37.96,21.02 57.9,42.04l75.15 -54.07c-27.1,-30.53 -56.36,-52.21 -87.79,-64.96 -31.44,-12.76 -65.55,-19.15 -102.37,-19.15 -41.92,0 -80.38,6.64 -115.39,19.9 -35.02,13.28 -65.18,32.17 -90.47,56.7 -25.32,24.54 -45.12,54.19 -59.43,88.99 -14.31,34.8 -21.46,73.48 -21.46,116.02 0,41.56 7.15,79.35 21.46,113.39 14.29,34.11 34.09,63.25 59.41,87.53z"/>
   <path class="fil1" d="M965.32 4987.53c42.41,-0.49 81.27,-7.65 116.56,-21.4 35.26,-13.77 65.67,-32.92 91.24,-57.45 25.55,-24.52 45.49,-53.82 59.8,-87.86 14.29,-34.05 21.46,-71.84 21.46,-113.39 0,-42.53 -7.15,-81.11 -21.46,-115.65 -14.31,-34.54 -34.25,-64.07 -59.8,-88.62 -25.57,-24.52 -55.98,-43.17 -91.24,-55.95 -35.26,-12.78 -74.13,-18.89 -116.56,-18.4 -41.92,0 -80.38,6.64 -115.39,19.9 -35.02,13.28 -65.18,32.17 -90.47,56.7 -25.32,24.54 -45.12,54.19 -59.43,88.99 -14.31,34.8 -21.46,73.48 -21.46,116.02 0,41.56 7.15,79.35 21.46,113.39 14.31,34.05 34.13,63.2 59.43,87.49 25.29,24.29 55.44,43.06 90.47,56.33 35,13.26 73.48,19.9 115.39,19.9zm-172.14 -204.26c-8.94,-24.03 -13.42,-50.33 -13.42,-78.85 0,-26.54 4.46,-51.31 13.42,-74.35 8.94,-23.02 21.58,-43.17 37.96,-60.46 16.35,-17.27 35.89,-30.79 58.66,-40.54 22.73,-9.76 48.16,-14.64 76.28,-14.64 28.1,0 53.68,4.88 76.68,14.64 22.99,9.76 42.67,23.28 59.05,40.54 16.35,17.27 29,37.43 37.96,60.46 8.94,23.04 13.42,47.81 13.42,74.35 0,28.53 -4.46,54.8 -13.42,78.85 -8.94,24.03 -21.6,44.82 -37.96,62.33 -16.35,17.53 -36.04,31.3 -59.05,41.29 -22.99,10.02 -48.56,15.02 -76.68,15.02 -28.13,0 -53.56,-5 -76.28,-15.02 -22.76,-10.02 -42.31,-23.77 -58.66,-41.29 -16.38,-17.52 -29.01,-38.31 -37.96,-62.33z"/>
   <polygon class="fil1" points="2086.31,4974.02 2086.31,4442.33 1940.64,4442.33 1794.18,4814.81 1649.28,4442.33 1502.05,4442.33 1502.05,4974.02 1594.07,4974.02 1594.07,4532.44 1595.59,4532.44 1760.44,4974.02 1827.91,4974.02 1992.78,4532.44 1994.31,4532.44 1994.31,4974.02 "/>
   <path class="fil1" d="M2459.74 4754l69.01 0c28.62,0 56.1,-2 82.43,-6.01 26.32,-4.01 49.46,-11.64 69.38,-22.9 19.94,-11.26 35.77,-27.15 47.53,-47.67 11.76,-20.53 17.62,-47.55 17.62,-81.11 0,-29.54 -5.49,-54.19 -16.5,-73.97 -11.01,-19.78 -25.69,-35.55 -44.09,-47.3 -18.42,-11.76 -39.74,-20.16 -64.03,-25.15 -24.29,-5 -49.46,-7.51 -75.53,-7.51l-182.48 0 0 531.67 96.62 0 0 -220.05 0.04 0zm0 -230.57l69.01 0c12.76,0 26.07,0.75 39.86,2.25 13.79,1.5 26.32,4.88 37.59,10.14 11.24,5.26 20.43,12.76 27.59,22.53 7.15,9.76 10.75,22.9 10.75,39.41 0,18.02 -3.97,32.05 -11.87,42.07 -7.93,10.02 -18.14,17.53 -30.69,22.53 -12.53,5.02 -26.21,8.02 -41.01,9.01 -14.82,1.01 -29.13,1.5 -42.94,1.5l-58.29 0 0 -149.43z"/>
   <path class="fil1" d="M3187.4 4442.33l-83.6 0 -236.14 531.67 108.11 0 49.05 -121.65 235.4 -0.01 50.61 121.65 110.41 0.01 -233.84 -531.67zm-129.59 328.93l85.1 -216.28 83.57 216.28 -168.67 0z"/>
   <polygon class="fil1" points="4027.75,4837.33 4026.22,4837.33 3763.22,4442.33 3635.16,4442.33 3635.16,4974.02 3731.78,4974.02 3731.78,4566.25 3733.32,4566.25 4001.68,4974.02 4124.36,4974.02 4124.36,4442.33 4027.75,4442.33 "/>
   <polygon class="fil1" points="4582.1,4654.12 4448.7,4442.33 4327.54,4442.33 4531.53,4746.49 4531.53,4974.02 4628.11,4974.02 4628.11,4746.49 4832.1,4442.33 4717.06,4442.33 "/>
   <polygon class="fil1" points="672.16,1855.37 2412.33,210.45 2412.33,4.93 672.16,1649.86 "/>
   <polygon class="fil1" points="672.16,2179.85 672.16,2385.38 2412.33,740.46 2412.33,534.93 "/>
   <polygon class="fil1" points="672.16,2709.62 672.16,2915.37 2412.33,1270.23 2412.33,1064.73 "/>
   <polygon class="fil1" points="672.16,3239.62 672.16,3445.15 2412.33,1800.23 2412.33,1594.7 "/>
   <polygon class="fil1" points="2412.33,2124.71 672.16,3769.63 672.16,3975.16 2412.33,2330.26 "/>
   <polygon class="fil1" points="4159.77,1649.86 2553.1,131.15 2553.1,336.68 4159.77,1855.37 "/>
   <polygon class="fil1" points="4159.77,2179.85 2553.1,661.16 2553.1,866.71 4159.77,2385.38 "/>
   <polygon class="fil1" points="4159.77,2709.62 2553.1,1190.93 2553.1,1396.46 4159.77,2915.37 "/>
   <polygon class="fil1" points="4159.77,3239.62 2553.1,1720.93 2553.1,1926.46 4159.77,3445.15 "/>
   <polygon class="fil1" points="4159.77,3769.63 2553.1,2250.96 2553.1,2456.46 4159.77,3975.16 "/>
   <polygon class="fil2" points="2416.08,2326.72 2417.49,2325.32 2417.49,2122.6 2417.49,2119.79 2416.08,2121.19 2414.44,2119.79 2414.44,2122.6 2412.33,2124.71 2412.33,2330.26 "/>
   <polygon class="fil2" points="2414.44,1589.78 2414.44,1592.62 2412.33,1594.7 2412.33,1800.23 2416.08,1796.71 2417.49,1795.31 2417.49,1592.62 2417.49,1589.78 2416.08,1591.22 "/>
   <polygon class="fil2" points="2417.49,1062.59 2417.49,1059.77 2416.08,1061.19 2414.44,1059.77 2414.44,1062.59 2412.33,1064.73 2412.33,1270.23 2416.08,1266.71 2417.49,1265.3 "/>
   <polygon class="fil2" points="2417.49,532.82 2417.49,530.01 2416.08,531.41 2414.44,530.01 2414.44,532.82 2412.33,534.93 2412.33,740.46 2416.08,736.94 2417.49,735.53 "/>
   <polygon class="fil2" points="2416.08,206.96 2417.49,205.53 2417.49,2.81 2417.49,0 2416.08,1.41 2414.44,0 2414.44,2.81 2412.33,4.93 2412.33,210.45 "/>
   <polygon class="fil1" points="69.49,5204.77 0.67,5204.77 0.67,5171.48 176.6,5171.48 176.6,5204.77 107.78,5204.77 107.78,5417.79 69.49,5417.78 "/>
   <path class="fil1" d="M553.39 5362.69l-95.37 0 -19.31 55.06 -40.36 0 91.4 -246.28 31.92 0 91.4 246.28 -40.19 0 -19.5 -55.06zm-10.87 -33.11l-36.39 -107.59 -0.67 0 -36.39 107.59 73.46 0z"/>
   <path class="fil1" d="M962.45 5282.12l89.35 0 0 50.16c-0.47,24.66 -9.08,45.33 -25.87,61.99 -16.89,16.56 -38.18,25.06 -63.81,25.5 -19.78,-0.45 -36.27,-5.18 -49.5,-14.19 -13.44,-8.68 -23.22,-18.7 -29.33,-30.08 -1.83,-3.71 -3.52,-7.27 -5,-10.65 -1.38,-3.5 -2.53,-7.88 -3.44,-13.18 -1.74,-9.9 -2.58,-28.95 -2.58,-57.08 0,-28.6 0.87,-47.75 2.58,-57.43 1.83,-9.69 4.64,-17.51 8.44,-23.48 6.1,-11.38 15.85,-21.52 29.33,-30.41 13.24,-9.01 29.72,-13.63 49.5,-13.84 24.26,0.24 44.03,7.27 59.33,21.11 15.3,13.96 24.94,31.25 28.97,51.85l-40.36 -0.01c-3.1,-9.9 -8.73,-18.34 -16.89,-25.34 -8.52,-6.64 -18.87,-10.06 -31.04,-10.3 -8.97,0.24 -16.68,1.97 -23.11,5.23 -6.54,3.38 -11.85,7.61 -15.89,12.67 -4.96,5.3 -8.22,12.11 -9.83,20.43 -1.83,8.77 -2.75,25.29 -2.75,49.5 0,24.21 0.91,40.59 2.75,49.15 1.62,8.56 4.88,15.49 9.83,20.77 4.03,5.06 9.31,9.17 15.89,12.34 6.43,3.71 14.15,5.56 23.11,5.56 14.82,0 27.07,-4.96 36.74,-14.86 9.67,-9.45 14.59,-21.89 14.82,-37.33l0 -12.83 -51.23 0.02 0 -35.26 -0.02 0z"/>
   <polygon class="fil1" points="1426.83,5171.48 1464.96,5171.48 1464.96,5382.47 1587.43,5382.47 1587.43,5417.78 1426.86,5417.78 1426.86,5171.48 "/>
   <polygon class="fil1" points="1870.54,5171.48 1908.67,5171.48 1908.67,5417.76 1870.54,5417.76 "/>
   <polygon class="fil1" points="2208.86,5171.48 2244.74,5171.48 2358.57,5346.48 2359.25,5346.48 2359.25,5171.48 2397.36,5171.48 2397.36,5417.76 2361.32,5417.76 2247.67,5242.75 2247,5242.75 2247,5417.76 2208.86,5417.76 "/>
   <polygon class="fil1" points="2697.76,5171.48 2858.34,5171.48 2858.34,5206.78 2735.89,5206.78 2735.89,5277.05 2840.41,5277.05 2840.41,5310.15 2735.89,5310.16 2735.89,5382.45 2858.34,5382.45 2858.34,5417.76 2697.76,5417.76 "/>
   <polygon class="fil1" points="3348.48,5310.16 3248.96,5310.16 3248.96,5417.76 3210.83,5417.76 3210.83,5171.48 3248.96,5171.48 3248.96,5277.06 3348.48,5277.05 3348.48,5171.47 3386.61,5171.48 3386.61,5417.76 3348.48,5417.76 "/>
   <polygon class="fil1" points="3761.93,5171.48 3922.5,5171.48 3922.5,5206.78 3800.06,5206.78 3800.06,5277.05 3904.58,5277.05 3904.58,5310.15 3800.06,5310.16 3800.06,5382.45 3922.5,5382.45 3922.5,5417.76 3761.93,5417.76 "/>
   <path class="fil1" d="M4205.64 5171.48l98.14 0c20.93,0 38.01,5.42 51.22,16.21 15.97,12.27 24.33,29.8 25.01,52.53 -0.47,33.44 -16.68,56.19 -48.64,68.26l58.3 109.29 -45.34 -0.01 -51.92 -105.25 -48.63 0 0 105.25 -38.13 0 0 -246.28zm38.13 107.94l57.6 0c14.27,-0.24 24.96,-4.27 32.07,-12.15 7.02,-7.32 10.53,-16.33 10.53,-27.03 -0.24,-12.83 -4.43,-22.13 -12.59,-27.87 -6.46,-5.06 -15.75,-7.61 -27.94,-7.61l-59.66 0.01 0 74.65z"/>
   <polygon class="fil1" points="4668.33,5171.48 4828.9,5171.48 4828.9,5206.78 4706.45,5206.78 4706.45,5277.05 4810.98,5277.05 4810.98,5310.15 4706.45,5310.16 4706.45,5382.45 4828.9,5382.45 4828.9,5417.76 4668.33,5417.76 "/>
  </g>
 </g>
</svg>
