<?xml version="1.0" encoding="UTF-8"?>
<!DOCTYPE svg PUBLIC "-//W3C//DTD SVG 1.1//EN" "http://www.w3.org/Graphics/SVG/1.1/DTD/svg11.dtd">
<!-- Creator: CorelDRAW 2020 (64-Bit) -->
<svg xmlns="http://www.w3.org/2000/svg" xml:space="preserve" width="41.219mm" height="54.2626mm" version="1.1" style="shape-rendering:geometricPrecision; text-rendering:geometricPrecision; image-rendering:optimizeQuality; fill-rule:evenodd; clip-rule:evenodd"
viewBox="0 0 967.76 1274.01"
 xmlns:xlink="http://www.w3.org/1999/xlink"
 xmlns:xodm="http://www.corel.com/coreldraw/odm/2003">
 <defs>
  <style type="text/css">
   <![CDATA[
    .fil0 {fill:none;fill-rule:nonzero}
    .fil1 {fill:black;fill-rule:nonzero}
   ]]>
  </style>
 </defs>
 <g id="Capa_x0020_1">
  <metadata id="CorelCorpID_0Corel-Layer"/>
  <g id="_1328989301392">
   <path class="fil0" d="M872.09 1228.24c0,-6.12 -4.16,-9.18 -12.47,-9.18l-3.21 0 0 18.97 2.86 0c8.55,0 12.82,-3.27 12.82,-9.8z"/>
   <polygon class="fil0" points="103.49,1227.04 94.2,1247.37 112.36,1247.37 "/>
   <polygon class="fil0" points="629.42,1061.48 612.38,1105.69 646.15,1105.69 "/>
   <path class="fil0" d="M512.9 1085.27c2.97,-0.2 5.7,-0.82 8.21,-1.84 2.51,-1.02 4.55,-2.55 6.14,-4.61 1.59,-2.05 2.38,-4.91 2.38,-8.6 0,-3.38 -0.72,-6.06 -2.15,-8.06 -1.43,-2 -3.28,-3.53 -5.52,-4.6 -2.25,-1.08 -4.76,-1.76 -7.52,-2.07 -2.76,-0.31 -5.42,-0.46 -7.98,-0.46l-13.82 0 0 30.55 11.67 0c2.76,0 5.63,-0.1 8.6,-0.31z"/>
   <path class="fil0" d="M166.56 1120.89c3.28,3.58 7.19,6.4 11.74,8.45 4.55,2.05 9.64,3.07 15.27,3.07 5.63,0 10.75,-1.02 15.35,-3.07 4.6,-2.05 8.55,-4.86 11.82,-8.45 3.28,-3.58 5.81,-7.83 7.6,-12.74 1.79,-4.91 2.69,-10.29 2.69,-16.12 0,-5.42 -0.9,-10.49 -2.69,-15.2 -1.79,-4.71 -4.33,-8.83 -7.6,-12.36 -3.28,-3.53 -7.21,-6.29 -11.82,-8.29 -4.61,-2 -9.73,-3 -15.35,-3 -5.63,0 -10.72,1 -15.27,3 -4.56,2 -8.47,4.76 -11.74,8.29 -3.28,3.53 -5.81,7.65 -7.6,12.36 -1.79,4.71 -2.69,9.77 -2.69,15.2 0,5.83 0.9,11.21 2.69,16.12 1.79,4.92 4.32,9.17 7.6,12.74z"/>
   <polygon class="fil1" points="13.75,1270.37 22.76,1270.37 22.76,1219.07 36.47,1219.07 36.47,1210.58 -0,1210.58 -0,1219.07 13.75,1219.07 "/>
   <path class="fil1" d="M83.79 1270.37l6.66 -14.52 25.59 -0 6.27 14.52 9.87 0 -28.53 -63.54 -29.58 63.54 9.72 0zm19.71 -43.32l8.87 20.33 -18.16 -0 9.29 -20.33z"/>
   <path class="fil1" d="M205.02 1217.94c7.05,0 13.02,3.26 17.92,9.8l6.43 -6.15c-3.74,-4.28 -7.55,-7.38 -11.42,-9.29 -4.05,-1.91 -8.41,-2.86 -13.09,-2.86 -8.7,0 -16.08,3.03 -22.15,9.1 -6.06,6.04 -9.1,13.4 -9.1,22.07 0,8.49 2.98,15.77 8.95,21.84 5.96,6.04 13.12,9.06 21.49,9.06 8.57,0 15.63,-3.12 21.18,-9.37 2.45,-2.79 4.2,-5.78 5.23,-8.98 1.06,-3.46 1.59,-7.43 1.59,-11.93l0 -1.97 -24.7 0 0 8.48 14.91 0c-0.42,4.21 -2.39,7.82 -5.93,10.84 -3.54,3 -7.52,4.49 -11.96,4.49 -5.22,0 -10.05,-2 -14.52,-6 -4.78,-4.31 -7.16,-9.8 -7.16,-16.45 0,-6.45 2.14,-11.82 6.43,-16.1 4.28,-4.37 9.58,-6.56 15.91,-6.56z"/>
   <polygon class="fil1" points="310.47,1210.58 310.47,1270.37 337.07,1270.37 337.07,1261.89 319.49,1261.89 319.49,1210.58 "/>
   <rect class="fil1" x="385.27" y="1210.58" width="9.02" height="59.78"/>
   <polygon class="fil1" points="448.3,1270.37 457.33,1270.37 457.33,1228.51 500.93,1274.01 500.93,1210.58 491.9,1210.58 491.9,1252.13 448.3,1206.52 "/>
   <polygon class="fil1" points="554.89,1270.37 587.88,1270.37 587.88,1261.89 563.92,1261.89 563.92,1241.91 587.19,1241.91 587.19,1233.43 563.92,1233.43 563.92,1219.07 587.88,1219.07 587.88,1210.58 554.89,1210.58 "/>
   <polygon class="fil1" points="699.91,1233.97 674.13,1233.97 674.13,1210.58 665.11,1210.58 665.11,1270.37 674.13,1270.37 674.13,1242.45 699.91,1242.45 699.91,1270.37 708.93,1270.37 708.93,1210.58 699.91,1210.58 "/>
   <polygon class="fil1" points="795.89,1219.07 795.89,1210.58 762.9,1210.58 762.9,1270.37 795.89,1270.37 795.89,1261.89 771.93,1261.89 771.93,1241.91 795.2,1241.91 795.2,1233.43 771.93,1233.43 771.93,1219.07 "/>
   <path class="fil1" d="M856.41 1245.89l1.63 0 17.07 24.47 11.03 0 -18.51 -25.48c3.97,-0.85 7.17,-2.8 9.6,-5.84 2.43,-3.05 3.64,-6.69 3.64,-10.92 0,-5.42 -1.94,-9.78 -5.8,-13.09 -3.51,-2.97 -9.22,-4.45 -17.11,-4.45l-10.57 0 0 59.78 9.02 0 0 -24.47 -0 0zm0 -26.83l3.21 0c8.31,0 12.47,3.06 12.47,9.18 0,6.53 -4.27,9.79 -12.81,9.79l-2.86 0 0 -18.97 -0 0z"/>
   <polygon class="fil1" points="967.76,1219.07 967.76,1210.58 934.77,1210.58 934.77,1270.37 967.76,1270.37 967.76,1261.89 943.8,1261.89 943.8,1241.91 967.07,1241.91 967.07,1233.43 943.8,1233.43 943.8,1219.07 "/>
   <polygon class="fil1" points="601.36,0 194.47,406.94 194.47,579.9 601.36,173.01 "/>
   <polygon class="fil1" points="601.36,517.8 601.36,375.26 366.36,610.26 366.36,610.31 194.47,782.15 194.47,924.74 366.36,752.85 "/>
   <polygon class="fil1" points="366.36,432.29 366.36,579.85 366.36,579.9 601.36,344.95 773.3,173.01 773.3,25.35 601.36,197.29 "/>
   <polygon class="fil1" points="773.3,370.19 601.36,542.14 366.36,777.08 366.36,924.74 773.3,517.8 "/>
   <path class="fil1" d="M16.34 1134.32c5.07,4.97 11.1,8.8 18.12,11.52 7.01,2.71 14.71,4.07 23.11,4.07 7.98,0 15.51,-1.54 22.57,-4.61 7.06,-3.07 13.05,-7.98 17.96,-14.74l-15.97 -11.36c-3.58,4.61 -7.45,7.96 -11.59,10.06 -4.15,2.1 -8.42,3.15 -12.82,3.15 -5.63,0 -10.72,-1.02 -15.28,-3.07 -4.55,-2.05 -8.47,-4.86 -11.74,-8.45 -3.28,-3.58 -5.81,-7.83 -7.6,-12.74 -1.79,-4.91 -2.69,-10.29 -2.69,-16.12 0,-5.42 0.9,-10.49 2.69,-15.2 1.79,-4.71 4.32,-8.83 7.6,-12.36 3.28,-3.53 7.19,-6.29 11.74,-8.29 4.56,-2 9.65,-3 15.28,-3 3.79,0 7.55,0.72 11.28,2.15 3.74,1.43 7.6,4.3 11.59,8.6l15.05 -11.06c-5.42,-6.24 -11.28,-10.67 -17.57,-13.28 -6.29,-2.61 -13.13,-3.91 -20.49,-3.91 -8.39,0 -16.09,1.36 -23.11,4.07 -7.01,2.71 -13.05,6.58 -18.12,11.59 -5.06,5.01 -9.03,11.08 -11.9,18.19 -2.86,7.12 -4.3,15.02 -4.3,23.72 0,8.49 1.43,16.22 4.3,23.18 2.86,6.96 6.83,12.92 11.9,17.89z"/>
   <path class="fil1" d="M152.2 1134.32c5.07,4.97 11.1,8.8 18.12,11.52 7.01,2.71 14.71,4.07 23.11,4.07 8.49,-0.1 16.27,-1.56 23.34,-4.37 7.06,-2.81 13.15,-6.73 18.27,-11.74 5.11,-5.01 9.11,-11 11.97,-17.96 2.86,-6.96 4.3,-14.69 4.3,-23.18 0,-8.7 -1.43,-16.58 -4.3,-23.64 -2.87,-7.06 -6.86,-13.1 -11.97,-18.12 -5.12,-5.01 -11.21,-8.83 -18.27,-11.44 -7.07,-2.61 -14.84,-3.86 -23.34,-3.76 -8.39,0 -16.09,1.36 -23.11,4.07 -7.01,2.71 -13.05,6.58 -18.12,11.59 -5.06,5.01 -9.03,11.08 -11.9,18.19 -2.86,7.12 -4.3,15.02 -4.3,23.72 0,8.49 1.43,16.22 4.3,23.18 2.86,6.96 6.83,12.92 11.9,17.88zm6.76 -57.49c1.79,-4.71 4.32,-8.83 7.6,-12.36 3.28,-3.53 7.19,-6.29 11.74,-8.29 4.55,-2 9.64,-3 15.27,-3 5.63,0 10.75,1 15.35,3 4.6,2 8.55,4.76 11.82,8.29 3.28,3.53 5.81,7.65 7.6,12.36 1.79,4.71 2.69,9.77 2.69,15.2 0,5.83 -0.9,11.21 -2.69,16.12 -1.79,4.91 -4.33,9.16 -7.6,12.74 -3.28,3.58 -7.21,6.4 -11.82,8.45 -4.61,2.05 -9.73,3.07 -15.35,3.07 -5.63,0 -10.72,-1.02 -15.27,-3.07 -4.56,-2.05 -8.47,-4.86 -11.74,-8.45 -3.28,-3.58 -5.81,-7.83 -7.6,-12.74 -1.79,-4.91 -2.69,-10.29 -2.69,-16.12 -0,-5.42 0.89,-10.49 2.69,-15.2z"/>
   <polygon class="fil1" points="330.36,1038.45 300.89,1038.45 300.89,1147.14 319.31,1147.14 319.31,1056.87 319.61,1056.87 352.62,1147.14 366.14,1147.14 399.14,1056.87 399.45,1056.87 399.45,1147.14 417.87,1147.14 417.87,1038.45 388.7,1038.45 359.38,1114.6 "/>
   <path class="fil1" d="M492.63 1102.16l13.82 0c5.73,0 11.23,-0.41 16.5,-1.23 5.27,-0.82 9.91,-2.38 13.89,-4.68 3.99,-2.3 7.16,-5.55 9.52,-9.75 2.35,-4.2 3.53,-9.72 3.53,-16.58 0,-6.04 -1.1,-11.07 -3.3,-15.12 -2.2,-4.05 -5.14,-7.27 -8.83,-9.67 -3.69,-2.4 -7.96,-4.12 -12.82,-5.14 -4.86,-1.02 -9.91,-1.54 -15.12,-1.54l-36.54 -0 0 108.69 19.34 0 0 -44.98 0 0zm0 -47.13l13.82 0c2.55,0 5.22,0.15 7.98,0.46 2.76,0.31 5.27,1 7.52,2.07 2.25,1.08 4.09,2.61 5.52,4.6 1.43,1.99 2.15,4.68 2.15,8.06 0,3.69 -0.8,6.55 -2.38,8.6 -1.59,2.05 -3.63,3.58 -6.14,4.61 -2.51,1.02 -5.25,1.64 -8.21,1.84 -2.97,0.21 -5.83,0.31 -8.6,0.31l-11.66 0 0 -30.55z"/>
   <path class="fil1" d="M605.78 1122.27l47.13 0 10.13 24.87 22.11 0 -46.82 -108.69 -16.73 -0 -47.29 108.69 21.65 0 9.82 -24.87zm23.64 -60.79l16.73 44.21 -33.77 -0 17.04 -44.21z"/>
   <polygon class="fil1" points="727.98,1038.45 727.98,1147.14 747.32,1147.14 747.32,1063.78 747.63,1063.78 801.36,1147.14 825.93,1147.14 825.93,1038.45 806.58,1038.45 806.58,1119.2 806.27,1119.2 753.62,1038.45 "/>
   <polygon class="fil1" points="907.45,1147.14 926.78,1147.14 926.78,1100.63 967.63,1038.45 944.6,1038.45 917.57,1081.74 890.86,1038.45 866.61,1038.45 907.45,1100.63 "/>
  </g>
 </g>
</svg>
