<?xml version="1.0" encoding="UTF-8"?>
<!DOCTYPE svg PUBLIC "-//W3C//DTD SVG 1.1//EN" "http://www.w3.org/Graphics/SVG/1.1/DTD/svg11.dtd">
<!-- Creator: CorelDRAW 2020 (64-Bit) -->
<svg xmlns="http://www.w3.org/2000/svg" xml:space="preserve" width="44.6431mm" height="49.3819mm" version="1.1" style="shape-rendering:geometricPrecision; text-rendering:geometricPrecision; image-rendering:optimizeQuality; fill-rule:evenodd; clip-rule:evenodd"
viewBox="0 0 1113.51 1231.71"
 xmlns:xlink="http://www.w3.org/1999/xlink"
 xmlns:xodm="http://www.corel.com/coreldraw/odm/2003">
 <defs>
  <style type="text/css">
   <![CDATA[
    .fil0 {fill:none;fill-rule:nonzero}
    .fil1 {fill:black;fill-rule:nonzero}
   ]]>
  </style>
 </defs>
 <g id="Capa_x0020_1">
  <metadata id="CorelCorpID_0Corel-Layer"/>
  <g id="_1328879199664">
   <path class="fil0" d="M592.28 1060.82c2.18,-2.23 3.27,-5.16 3.27,-8.79 0,-3.63 -1.11,-6.61 -3.34,-8.93 -2.23,-2.33 -5.18,-3.49 -8.86,-3.49l-15.4 0 0 24.56 15.4 0c3.78,-0 6.76,-1.11 8.93,-3.34z"/>
   <path class="fil0" d="M221.35 1042.07c-8.19,0 -14.72,2.67 -19.62,7.99 -4.89,5.33 -7.34,12.44 -7.34,21.36 0,8.91 2.44,16.03 7.34,21.36 4.89,5.33 11.43,7.99 19.62,7.99 8.19,0 14.72,-2.67 19.62,-7.99 4.89,-5.33 7.34,-12.44 7.34,-21.36 0,-8.91 -2.45,-16.03 -7.34,-21.36 -4.89,-5.33 -11.43,-7.99 -19.62,-7.99z"/>
   <polygon class="fil0" points="113.31,1191.98 113.17,1191.98 106.01,1213.59 120.46,1213.59 "/>
   <path class="fil0" d="M995.69 1188.52l-11.74 0 0 14.99 11.33 -0c2.81,-0.04 4.91,-0.86 6.31,-2.44 1.38,-1.47 2.07,-3.28 2.07,-5.43 -0.04,-2.58 -0.87,-4.44 -2.48,-5.59 -1.26,-1.02 -3.1,-1.53 -5.49,-1.53z"/>
   <polygon class="fil0" points="734.73,1050.36 722.68,1086.68 746.79,1086.68 "/>
   <polygon class="fil1" points="153.93,805.35 259.32,699.95 259.32,335.01 336.54,335.01 336.54,622.73 441.92,517.35 441.92,229.68 153.98,229.68 "/>
   <polygon class="fil1" points="729.86,517.61 479.35,517.61 374.23,622.73 374.23,623 624.53,623 624.53,700.22 296.74,700.22 191.63,805.35 191.63,805.61 729.86,805.55 "/>
   <polygon class="fil1" points="959.54,37.43 854.21,142.76 854.21,306.95 690.02,306.95 584.68,412.28 959.54,412.28 "/>
   <polygon class="fil1" points="547.26,412.01 652.59,306.68 652.59,105.33 853.94,105.33 959.27,0 547.26,0 "/>
   <polygon class="fil1" points="0,1188.52 13.54,1188.52 13.54,1231.3 21.07,1231.3 21.07,1188.52 34.6,1188.52 34.6,1181.84 0,1181.84 "/>
   <path class="fil1" d="M103.84 1220.24l18.76 0 3.83 11.06 7.91 0 -17.98 -49.46 -6.27 -0 -17.98 49.46 7.94 0 3.8 -11.06zm9.33 -28.25l0.13 0 7.16 21.61 -14.45 0 7.16 -21.61z"/>
   <path class="fil1" d="M209.21 1192.53c0.79,-1.02 1.83,-1.86 3.12,-2.55 1.26,-0.66 2.78,-1.01 4.54,-1.05 2.4,0.04 4.43,0.73 6.11,2.07 1.6,1.4 2.71,3.1 3.32,5.09l7.94 0c-0.79,-4.14 -2.69,-7.61 -5.7,-10.42 -3.01,-2.78 -6.9,-4.2 -11.67,-4.24 -3.89,0.05 -7.14,0.98 -9.74,2.78 -2.64,1.79 -4.57,3.82 -5.77,6.11 -0.74,1.2 -1.3,2.77 -1.66,4.72 -0.34,1.94 -0.51,5.79 -0.51,11.54 0,5.65 0.17,9.48 0.51,11.47 0.18,1.06 0.41,1.94 0.68,2.64 0.3,0.68 0.62,1.39 0.99,2.14 1.2,2.28 3.12,4.3 5.77,6.04 2.6,1.81 5.84,2.76 9.74,2.85 5.05,-0.09 9.22,-1.8 12.55,-5.12 3.3,-3.35 5,-7.5 5.09,-12.45l0 -10.07 -17.57 0 0 7.09 10.07 0 0 2.58c-0.04,3.1 -1.02,5.59 -2.92,7.5 -1.9,1.99 -4.31,2.98 -7.23,2.98 -1.77,0 -3.28,-0.37 -4.54,-1.12 -1.29,-0.64 -2.33,-1.46 -3.12,-2.48 -0.98,-1.06 -1.62,-2.46 -1.93,-4.17 -0.36,-1.72 -0.54,-5.01 -0.54,-9.87 0,-4.86 0.18,-8.17 0.54,-9.94 0.32,-1.67 0.96,-3.04 1.93,-4.1z"/>
   <polygon class="fil1" points="339.43,1181.84 339.43,1231.3 371.02,1231.3 371.02,1224.21 346.93,1224.21 346.93,1181.84 "/>
   <rect class="fil1" x="440.6" y="1181.84" width="7.5" height="49.46"/>
   <polygon class="fil1" points="550.48,1216.98 528.08,1181.84 521.03,1181.84 521.03,1231.3 528.53,1231.3 528.53,1196.16 528.66,1196.16 551.02,1231.3 558.11,1231.3 558.11,1181.84 550.61,1181.84 550.61,1216.98 "/>
   <polygon class="fil1" points="662.66,1188.93 662.66,1181.84 631.08,1181.84 631.08,1231.3 662.66,1231.3 662.66,1224.21 638.58,1224.21 638.58,1209.69 659.13,1209.69 659.13,1203.04 638.58,1203.04 638.58,1188.93 "/>
   <polygon class="fil1" points="802.32,1231.3 802.32,1181.84 794.82,1181.84 794.82,1203.04 775.25,1203.04 775.25,1181.84 767.75,1181.84 767.75,1231.3 775.25,1231.3 775.25,1209.69 794.82,1209.69 794.82,1231.3 "/>
   <polygon class="fil1" points="906.87,1188.93 906.87,1181.84 875.29,1181.84 875.29,1231.3 906.87,1231.3 906.87,1224.21 882.79,1224.21 882.79,1209.69 903.35,1209.69 903.35,1203.04 882.79,1203.04 882.79,1188.93 "/>
   <path class="fil1" d="M1010.75 1195.65c-0.13,-4.57 -1.78,-8.08 -4.92,-10.55 -2.6,-2.17 -5.96,-3.26 -10.07,-3.26l-19.31 -0 0 49.46 7.5 0 0 -21.13 9.57 0 10.21 21.13 8.92 0 -11.47 -21.95c6.3,-2.41 9.49,-6.99 9.58,-13.7zm-9.16 5.43c-1.4,1.58 -3.51,2.4 -6.31,2.44l-11.33 0 0 -14.99 11.74 0c2.4,0 4.23,0.51 5.49,1.52 1.6,1.15 2.43,3.02 2.48,5.59 0,2.15 -0.69,3.96 -2.07,5.43z"/>
   <polygon class="fil1" points="1081.35,1231.3 1112.93,1231.3 1112.93,1224.21 1088.84,1224.21 1088.84,1209.69 1109.4,1209.69 1109.4,1203.04 1088.84,1203.04 1088.84,1188.93 1112.93,1188.93 1112.93,1181.84 1081.35,1181.84 "/>
   <path class="fil1" d="M71.34 1089.59c-3.88,7.46 -10.07,11.19 -18.6,11.19 -8.53,0 -15.23,-2.67 -20.12,-7.99 -4.89,-5.33 -7.34,-12.44 -7.34,-21.36 0,-8.91 2.44,-16.03 7.34,-21.36 4.89,-5.33 11.6,-7.99 20.12,-7.99 8.52,0 14.72,3.73 18.6,11.18l29.64 0c-3.48,-10.65 -9.63,-18.98 -18.45,-24.99 -8.81,-6 -18.89,-9.01 -30.22,-9.01 -14.63,0 -27,4.92 -37.12,14.75 -10.12,9.83 -15.18,22.3 -15.18,37.41 0,15.11 5.06,27.58 15.18,37.41 10.12,9.83 22.49,14.75 37.12,14.75 11.33,0 21.41,-3 30.22,-9.01 8.81,-6 14.97,-14.33 18.45,-24.99l-29.64 -0 0 0.01z"/>
   <path class="fil1" d="M273.59 1071.42c0,-15.11 -5.01,-27.58 -15.04,-37.41 -10.03,-9.83 -22.38,-14.75 -37.05,-14.75 -14.68,0 -27.08,4.92 -37.19,14.75 -10.12,9.83 -15.18,22.3 -15.18,37.41 0,15.11 5.06,27.6 15.18,37.49 10.12,9.88 22.49,14.82 37.12,14.82 14.63,0 26.97,-4.94 37.05,-14.82 10.06,-9.88 15.11,-22.38 15.11,-37.49zm-32.62 21.36c-4.9,5.33 -11.43,7.99 -19.62,7.99 -8.19,0 -14.72,-2.67 -19.62,-7.99 -4.89,-5.33 -7.34,-12.44 -7.34,-21.36 0,-8.91 2.44,-16.03 7.34,-21.36 4.89,-5.33 11.43,-7.99 19.62,-7.99 8.19,0 14.72,2.67 19.62,7.99 4.89,5.33 7.34,12.44 7.34,21.36 0,8.91 -2.45,16.04 -7.34,21.36z"/>
   <polygon class="fil1" points="463.19,1020.72 434.72,1020.72 405.51,1091.04 376.16,1020.72 347.68,1020.72 347.68,1122.71 372.53,1122.71 372.53,1065.18 396.21,1122.71 414.66,1122.71 438.34,1065.18 438.34,1122.71 463.19,1122.71 "/>
   <path class="fil1" d="M567.94 1083.05l15.4 0c7.07,0 13.2,-1.04 18.38,-3.12 5.18,-2.09 9.08,-4.77 11.7,-8.06 4.94,-6.39 7.41,-13.03 7.41,-19.9 0,-8.62 -3.29,-15.98 -9.88,-22.08 -6.59,-6.1 -15.79,-9.15 -27.6,-9.15l-40.25 0 0 101.99 24.85 0 0 -39.67zm0 -43.44l15.4 0c3.68,0 6.63,1.16 8.86,3.49 2.23,2.33 3.34,5.31 3.34,8.93 0,3.63 -1.09,6.56 -3.27,8.79 -2.18,2.23 -5.15,3.34 -8.93,3.34l-15.4 0 0 -24.55z"/>
   <path class="fil1" d="M716.43 1105.57l36.61 0 5.67 17.15 26.59 0 -35.3 -102.28 -30.22 0 -35.45 102.28 26.44 0 5.67 -17.15zm18.3 -55.21l12.06 36.32 -24.12 0 12.06 -36.32z"/>
   <polygon class="fil1" points="946.86,1122.71 946.86,1020.42 922.02,1020.42 922.02,1084.79 880.46,1020.42 855.62,1020.42 855.62,1122.71 880.46,1122.71 880.46,1058.35 922.02,1122.71 "/>
   <polygon class="fil1" points="1065.85,1066.77 1046.24,1020.72 1018.05,1020.72 1053.36,1089.88 1053.36,1122.71 1078.2,1122.71 1078.2,1089.88 1113.51,1020.72 1085.32,1020.72 "/>
  </g>
 </g>
</svg>
