<?xml version="1.0" encoding="UTF-8"?>
<!DOCTYPE svg PUBLIC "-//W3C//DTD SVG 1.1//EN" "http://www.w3.org/Graphics/SVG/1.1/DTD/svg11.dtd">
<!-- Creator: CorelDRAW 2020 (64-Bit) -->
<svg xmlns="http://www.w3.org/2000/svg" xml:space="preserve" width="42.0308mm" height="48.0315mm" version="1.1" style="shape-rendering:geometricPrecision; text-rendering:geometricPrecision; image-rendering:optimizeQuality; fill-rule:evenodd; clip-rule:evenodd"
viewBox="0 0 4590.5 5245.88"
 xmlns:xlink="http://www.w3.org/1999/xlink"
 xmlns:xodm="http://www.corel.com/coreldraw/odm/2003">
 <defs>
  <style type="text/css">
   <![CDATA[
    .fil0 {fill:none;fill-rule:nonzero}
    .fil1 {fill:black;fill-rule:nonzero}
   ]]>
  </style>
 </defs>
 <g id="Capa_x0020_1">
  <metadata id="CorelCorpID_0Corel-Layer"/>
  <g id="_1328874707920">
   <path class="fil0" d="M912.56 4464.13c-33.75,0 -60.69,10.99 -80.85,32.94 -20.16,21.97 -30.25,51.31 -30.25,88.05 0,36.74 10.07,66.1 30.25,88.05 20.16,21.97 47.12,32.94 80.85,32.94 33.75,0 60.69,-10.97 80.85,-32.94 20.16,-21.95 30.25,-51.31 30.25,-88.05 0,-36.74 -10.09,-66.08 -30.25,-88.05 -20.18,-21.95 -47.14,-32.94 -80.85,-32.94z"/>
   <path class="fil0" d="M2441.7 4541.4c8.99,-9.17 13.49,-21.26 13.49,-36.24 0,-14.97 -4.6,-27.26 -13.77,-36.83 -9.2,-9.58 -21.36,-14.38 -36.52,-14.38l-63.49 0 0 101.23 63.48 -0.01c15.56,0 27.83,-4.58 36.82,-13.77z"/>
   <polygon class="fil0" points="466.56,5082.15 437.03,5171.21 496.62,5171.21 467.12,5082.15 "/>
   <path class="fil0" d="M4129.11 5119.61c5.68,-6.06 8.54,-13.51 8.54,-22.38 -0.19,-10.64 -3.58,-18.33 -10.21,-23.07 -5.21,-4.19 -12.78,-6.29 -22.64,-6.29l-48.38 0 0 61.81 46.7 0c11.53,-0.19 20.22,-3.54 25.99,-10.07z"/>
   <polygon class="fil0" points="2979.27,4648.01 3078.69,4648.01 3028.98,4498.28 "/>
   <path class="fil1" d="M2433.26 1280.38c-17.68,2.36 -34.67,4.95 -52.56,8.26 -6.13,1.18 -12.49,2.36 -18.63,3.77 0,0.24 0,0.24 0,0.24 -10.14,187.46 -86.54,371.62 -229.43,514.28 -142.19,142.19 -325.4,218.59 -511.92,229.19 -0.24,0 -0.24,0 -0.24,0 -1.42,6.61 -2.59,12.96 -3.77,19.1 -3.54,18.63 -5.9,35.38 -8.02,51.17l0 1.42c-2.59,18.86 -4.25,35.38 -5.19,50.23l0 1.42c-1.89,25.94 -2.83,49.05 -2.83,70.74 0,3.77 0,7.55 0.24,11.31l0 4.95c0,5.43 0.24,10.62 0.47,16.03l0 1.65c0.24,5.9 0.24,11.09 0.71,16.27l0.24 1.89 0 1.89c0.47,6.61 0.71,13.2 1.42,19.57l0.24 1.89 0 1.65c0.47,6.13 0.94,12.02 1.65,18.39 0.47,5.9 0.94,11.09 1.65,16.27l0.24 2.12 0.24 2.12 0.24 1.18c0.49,4.25 0.94,8.49 1.65,12.96l1.42 8.96 0 1.18c2.12,14.62 4.48,29.48 7.55,44.09l0.24 0.94 0.24 0.71c3.07,17.45 7.08,34.89 11.56,51.88 2.36,9.91 5.19,19.81 8.02,29.71l0.19 0c298.76,-14.85 593.04,-136.29 820.82,-364.08 228.49,-228.49 349.93,-524.42 364.08,-824.36 -9.44,-2.83 -18.86,-5.43 -28.53,-7.78 -18.15,-4.48 -36.31,-8.49 -54.71,-12.02 -18.39,-3.54 -35.6,-6.37 -51.88,-8.49 -43.39,-5.9 -86.77,-8.96 -130.39,-8.96 -25.23,0 -49.75,0.94 -72.63,2.59 -21.25,1.91 -37.52,3.54 -52.37,5.66z"/>
   <path class="fil1" d="M2669.06 643.25c73.1,132.04 120.49,274.23 142.19,419.96 3.07,20.75 5.66,41.5 7.55,62.48 2.12,20.51 3.77,41.03 4.72,61.54 20.04,4.95 40.08,10.62 59.89,16.97 20.04,6.13 39.85,13.2 59.43,20.75 0.24,0 0.47,0.24 0.47,0.24 8.96,3.3 17.92,6.84 26.88,10.62 128.99,53.29 247.36,132.04 348.98,233.68 203.26,203.26 315.27,473.49 315.27,760.93 0,287.21 -112,557.66 -315.27,760.69 -203.26,203.26 -473.49,315.27 -760.93,315.27 -287.44,0 -557.66,-112 -760.69,-315.27 -109.64,-109.64 -190.76,-236.98 -242.88,-373.27 -0.24,-0.24 -0.24,-0.47 -0.24,-0.71 -7.55,-19.57 -14.62,-39.14 -20.75,-59.18 -0.24,0 -0.24,0 -0.24,-0.24 -6.13,-19.81 -11.8,-39.61 -16.97,-59.65 -11.31,-0.47 -22.64,-1.18 -33.96,-2.12 -0.71,0 -1.42,0 -2.12,-0.24 -5.9,-0.24 -11.56,-0.71 -17.21,-1.42 -2.83,-0.24 -5.43,-0.47 -8.26,-0.71 -2.12,-0.24 -4.48,-0.47 -6.61,-0.71 -8.26,-0.71 -16.27,-1.65 -24.52,-2.59 -10.38,-1.18 -20.75,-2.59 -31.13,-4.25 -6.37,-0.94 -12.73,-1.89 -19.33,-3.07 -6.84,-0.94 -13.44,-2.12 -20.28,-3.54 -6.84,-1.18 -13.44,-2.36 -20.04,-3.77 -22.16,-4.25 -44.33,-9.2 -66.26,-14.85 -5.19,-1.18 -10.38,-2.59 -15.8,-4.01 -26.88,-7.08 -53.53,-15.09 -79.94,-24.29 -14.14,-4.72 -28.06,-9.67 -41.97,-15.09 -12.73,-4.72 -25.7,-9.91 -38.43,-15.32 -14.62,-6.13 -29.24,-12.49 -43.62,-19.33 -6.61,-2.83 -13.2,-6.13 -19.57,-9.44 -3.07,-1.18 -5.9,-2.59 -8.96,-4.48 -5.66,-2.59 -11.29,-5.43 -16.97,-8.49 -0.94,-0.24 -1.89,-0.71 -2.83,-1.42 -8.73,-4.25 -17.45,-8.96 -26.17,-13.91 -3.54,-1.89 -7.08,-3.77 -10.62,-5.9 -10.14,-5.66 -20.28,-11.56 -30.19,-17.68 -4.72,-2.59 -9.2,-5.43 -13.67,-8.26 -1.89,-0.94 -4.01,-2.36 -5.9,-3.77 -20.51,-12.49 -40.55,-25.94 -60.36,-40.08 0.47,24.52 1.65,49.05 3.3,73.57 -0.24,0.24 -0.24,0.47 0,0.94 1.42,24.52 3.54,48.81 6.37,73.1l0 0.24c0,1.42 0,2.36 0.24,3.77 42.44,383.89 212.46,739.47 489.52,1016.53 322.57,322.34 751.26,499.9 1207.06,499.9 456.04,0 884.73,-177.55 1207.06,-499.9 322.57,-322.57 500.13,-751.02 500.13,-1207.06 0,-228.02 -44.33,-449.2 -128.99,-653.63 -84.88,-204.44 -209.86,-392.37 -371.15,-553.43 -277.77,-278.01 -634.77,-448.49 -1019.84,-489.99 -1.42,-0.24 -3.07,-0.47 -4.48,-0.47 -24.29,-2.59 -48.58,-4.72 -72.86,-6.13l-1.18 0.01c-24.29,-1.65 -48.81,-2.59 -73.33,-3.07 14.14,19.57 27.35,39.61 40.08,59.89 12.49,19.59 24.29,39.61 35.38,59.65z"/>
   <path class="fil1" d="M1018.21 1806.93c2.12,2.12 4.01,4.01 6.13,5.9 12.49,12.27 25.23,24.05 38.43,35.14 6.13,5.43 12.49,10.62 18.86,15.8 7.31,5.9 14.85,11.8 22.64,17.45 7.08,5.43 14.14,10.62 21.46,15.56 8.26,5.9 16.74,11.56 25.23,16.97 1.89,1.18 4.01,2.59 5.9,3.77 4.95,3.07 9.91,6.13 14.85,8.96 0.94,0.71 1.89,1.18 2.83,1.65 6.13,3.77 12.49,7.31 18.63,10.62 13.44,7.55 26.88,14.62 40.55,20.99 1.65,0.94 3.54,1.89 5.43,2.59 3.3,1.65 6.84,3.3 10.38,4.72 6.84,3.3 13.91,6.37 20.99,9.2 7.08,3.07 14.14,5.9 21.22,8.49 6.37,2.59 12.96,4.95 19.33,7.31 24.29,8.49 48.58,15.8 73.33,21.93 8.02,2.12 16.27,4.01 24.29,5.66 5.19,1.42 10.38,2.36 15.8,3.3 5.66,1.18 11.31,2.12 16.97,3.07 0.24,0.24 0.47,0.24 0.71,0.24 19.33,3.3 38.9,5.9 58.48,7.78 3.54,-19.33 7.78,-38.9 12.49,-58.01 0,-0.24 0,-0.24 0,-0.24 4.48,-19.33 9.67,-38.43 15.56,-57.54 0,-0.24 0,-0.24 0,-0.47 49.75,-164.12 139.12,-318.81 268.82,-448.26 126.39,-126.39 279.19,-217.65 445.66,-268.34 0.24,0 0.24,-0.24 0.47,-0.24 19.1,-5.66 38.2,-11.09 57.54,-15.56l0.24 0.01c19.1,-4.95 38.43,-9.2 58.01,-12.73 -1.89,-19.57 -4.48,-39.14 -8.02,-58.48 -3.3,-19.33 -7.31,-38.67 -12.27,-57.78 -33.02,-131.57 -100.22,-256.08 -202.09,-359.13 -1.42,-1.65 -2.83,-3.07 -4.48,-4.72 -14.85,-14.85 -29.95,-29.01 -45.74,-42.21 -18.39,-16.03 -37.25,-30.66 -56.6,-44.33 -22.87,7.55 -45.74,15.32 -68.38,23.82 -0.47,0.24 -0.94,0.24 -1.42,0.71 -21.69,7.78 -42.91,16.27 -64.13,25.23 -2.12,0.94 -4.01,1.65 -5.9,2.59l-0.23 0.01c-198.78,84.65 -381.53,207.5 -539.04,365.02 -158.69,158.45 -282.02,342.62 -366.44,543.28 -0.94,1.65 -1.65,3.54 -2.36,5.43 -8.96,21.22 -17.45,42.68 -25.23,64.37 -0.24,0.47 -0.47,0.94 -0.47,1.42 -8.49,22.64 -16.5,45.27 -23.82,68.38 8.02,11.31 16.5,22.64 25.47,33.49 0.71,0.71 1.18,1.65 1.65,2.36 1.65,2.36 3.54,4.48 5.4,6.61 3.77,4.72 7.55,9.44 11.8,13.91 0,0 0,0 0,0.24 13,15.07 26.67,29.93 41.05,44.08z"/>
   <path class="fil1" d="M731.71 2172.18c0.94,0.94 1.65,1.65 2.59,2.36 1.18,-42.68 4.01,-85.12 8.02,-127.57 10.85,-108.46 31.13,-215.29 60.83,-319.5 5.43,-19.1 11.31,-38.2 17.45,-57.3 10.62,-33.25 22.4,-66.02 35.14,-98.57 -0.71,-1.42 -1.42,-2.83 -2.12,-4.25l0 -0.24c-43.39,-98.8 -66.26,-206.32 -66.26,-317.39 0,-210.57 81.83,-408.41 230.85,-557.19 153.51,-153.75 355.35,-230.61 557.19,-230.61 100.93,0 201.84,19.33 296.63,57.78 6.13,2.59 12.27,4.95 18.15,7.78 1.42,0.47 2.83,1.18 4.25,1.89 32.78,-12.96 65.79,-24.76 99.51,-35.6 18.86,-6.13 37.96,-12.02 57.07,-17.45 104.7,-29.95 211.75,-50.7 320.21,-61.54 42.21,-4.25 84.65,-7.08 127.34,-8.49 -0.71,-0.94 -1.42,-1.65 -2.36,-2.36 -11.8,-12.96 -24.05,-25.94 -36.54,-38.43 -30.42,-30.42 -62.25,-58.96 -94.79,-85.59 -16.5,-13.44 -33.02,-26.17 -49.99,-38.67 -160.11,-117.43 -342.15,-192.18 -530.08,-223.78 -19.81,-3.3 -39.61,-6.13 -59.65,-8.49 -49.75,-5.9 -99.75,-8.96 -149.74,-8.96 -49.99,0 -99.98,3.07 -149.74,8.96 -20.04,2.36 -39.85,5.19 -59.65,8.49 -187.93,31.6 -369.73,106.35 -529.85,223.78 -16.97,12.49 -33.49,25.23 -49.99,38.67 -32.54,26.65 -64.37,55.18 -94.79,85.59 -236.27,236.27 -366.2,550.36 -366.2,884.26 0,333.9 129.93,647.98 366.2,884.02 13.19,13.19 26.64,26.16 40.31,38.42z"/>
   <polygon class="fil1" points="55.79,5244.21 86.85,5244.21 86.85,5067.87 142.66,5067.87 142.66,5040.31 -0,5040.31 -0,5067.87 55.79,5067.87 "/>
   <path class="fil1" d="M521.24 5244.21l32.59 0 -74.11 -203.9 -25.87 0 -74.11 203.9 32.73 0 15.66 -45.58 77.35 0 15.77 45.58zm-84.21 -73l29.52 -89.09 0.57 0 29.5 89.09 -59.59 0z"/>
   <path class="fil1" d="M862.49 5084.36c3.28,-4.19 7.55,-7.69 12.88,-10.5 5.21,-2.71 11.46,-4.15 18.74,-4.34 9.85,0.19 18.25,3.05 25.16,8.54 6.63,5.78 11.21,12.78 13.73,20.99l32.72 0c-3.28,-17.05 -11.11,-31.36 -23.48,-42.94 -12.41,-11.46 -28.44,-17.29 -48.1,-17.47 -16.05,0.19 -29.42,4.01 -40.16,11.46 -10.89,7.36 -18.82,15.75 -23.77,25.19 -3.07,4.95 -5.37,11.41 -6.86,19.43 -1.39,8.02 -2.1,23.86 -2.1,47.54 0,23.3 0.71,39.07 2.1,47.28 0.75,4.39 1.69,8.02 2.81,10.89 1.2,2.81 2.54,5.73 4.05,8.81 4.95,9.4 12.85,17.7 23.77,24.9 10.73,7.45 24.09,11.37 40.16,11.74 20.77,-0.38 38.03,-7.4 51.74,-21.12 13.63,-13.79 20.61,-30.91 20.99,-51.31l0 -41.55 -72.45 0 0 29.24 41.52 0 0 10.64c-0.19,12.78 -4.19,23.09 -12.02,30.91 -7.83,8.2 -17.76,12.31 -29.78,12.31 -7.28,0 -13.53,-1.53 -18.74,-4.62 -5.33,-2.62 -9.6,-6.02 -12.88,-10.21 -4.01,-4.39 -6.65,-10.11 -7.97,-17.19 -1.49,-7.08 -2.24,-20.65 -2.24,-40.69 0,-20.04 0.75,-33.69 2.24,-40.98 1.28,-6.91 3.94,-12.55 7.95,-16.94z"/>
   <polygon class="fil1" points="1399.36,5040.31 1399.36,5244.21 1529.55,5244.21 1529.55,5214.99 1430.25,5214.99 1430.25,5040.31 "/>
   <rect class="fil1" x="1816.4" y="5040.31" width="30.91" height="203.9"/>
   <polygon class="fil1" points="2147.98,5040.31 2147.98,5244.21 2178.89,5244.21 2178.89,5099.33 2179.46,5099.33 2271.61,5244.21 2300.83,5244.21 2300.83,5040.31 2269.91,5040.31 2269.91,5185.18 2269.37,5185.18 2177.07,5040.31 "/>
   <polygon class="fil1" points="2731.84,5069.56 2731.84,5040.31 2601.66,5040.31 2601.66,5244.21 2731.84,5244.21 2731.84,5214.99 2632.58,5214.99 2632.58,5155.13 2717.32,5155.13 2717.32,5127.73 2632.58,5127.73 2632.58,5069.56 "/>
   <polygon class="fil1" points="3307.62,5244.21 3307.62,5040.31 3276.71,5040.31 3276.71,5127.73 3196.02,5127.73 3196.02,5040.31 3165.1,5040.31 3165.1,5244.21 3196.02,5244.21 3196.02,5155.13 3276.71,5155.13 3276.71,5244.21 "/>
   <polygon class="fil1" points="3738.64,5069.56 3738.64,5040.31 3608.46,5040.31 3608.46,5244.21 3738.64,5244.21 3738.64,5214.99 3639.34,5214.99 3639.34,5155.13 3724.1,5155.13 3724.1,5127.73 3639.34,5127.73 3639.34,5069.56 "/>
   <path class="fil1" d="M4056.38 5157.08l39.43 0 42.09 87.13 36.78 -0.01 -47.26 -90.48c25.92,-9.97 39.07,-28.81 39.43,-56.5 -0.55,-18.82 -7.31,-33.32 -20.28,-43.48 -10.73,-8.96 -24.57,-13.41 -41.52,-13.41l-79.55 0 0 203.9 30.89 0 0 -87.16zm0 -89.21l48.39 0c9.88,0 17.43,2.1 22.64,6.29 6.63,4.76 10.03,12.45 10.21,23.07 0,8.87 -2.85,16.32 -8.54,22.38 -5.78,6.53 -14.45,9.88 -26,10.07l-46.72 0 0 -61.81 0.02 0z"/>
   <polygon class="fil1" points="4588.09,5069.56 4588.09,5040.31 4457.91,5040.31 4457.91,5244.21 4588.09,5244.21 4588.09,5214.99 4488.81,5214.99 4488.81,5155.13 4573.57,5155.13 4573.57,5127.73 4488.81,5127.73 4488.81,5069.56 "/>
   <path class="fil1" d="M215.64 4800.15c46.71,0 88.26,-12.37 124.6,-37.13 36.34,-24.76 61.71,-59.09 76.07,-103.02l-122.19 0c-15.97,30.74 -41.52,46.12 -76.66,46.12 -35.14,0 -62.79,-10.97 -82.95,-32.94 -20.16,-21.95 -30.25,-51.31 -30.25,-88.05 0,-36.74 10.09,-66.08 30.25,-88.05 20.16,-21.95 47.82,-32.94 82.95,-32.94 35.14,0 60.69,15.38 76.66,46.12l122.19 0c-14.36,-43.93 -39.73,-78.27 -76.07,-103.02 -36.34,-24.76 -77.86,-37.13 -124.6,-37.13 -60.3,0 -111.33,20.28 -153.04,60.79 -41.73,40.53 -62.58,91.94 -62.58,154.24 0,62.3 20.87,113.71 62.58,154.24 41.72,40.53 92.75,60.79 153.04,60.79z"/>
   <path class="fil1" d="M1127.86 4585.12c0,-62.3 -20.65,-113.71 -61.99,-154.24 -41.34,-40.53 -92.25,-60.79 -152.75,-60.79 -60.48,0 -111.61,20.28 -153.34,60.79 -41.71,40.53 -62.58,91.94 -62.58,154.24 0,62.3 20.87,113.79 62.58,154.52 41.73,40.73 92.74,61.1 153.04,61.1 60.3,0 111.21,-20.37 152.75,-61.1 41.55,-40.73 62.3,-92.22 62.3,-154.52zm-134.45 88.05c-20.18,21.97 -47.14,32.94 -80.85,32.94 -33.75,0 -60.69,-10.97 -80.85,-32.94 -20.16,-21.95 -30.25,-51.31 -30.25,-88.05 0,-36.74 10.07,-66.08 30.25,-88.05 20.16,-21.95 47.12,-32.94 80.85,-32.94 33.75,0 60.69,10.99 80.85,32.94 20.16,21.97 30.25,51.31 30.25,88.05 -0.02,36.74 -10.09,66.1 -30.25,88.05z"/>
   <polygon class="fil1" points="1909.51,4376.09 1792.14,4376.09 1671.74,4665.98 1550.75,4376.09 1433.34,4376.09 1433.34,4796.57 1535.77,4796.57 1535.77,4559.38 1633.39,4796.57 1709.46,4796.57 1807.11,4559.38 1807.11,4796.57 1909.51,4796.57 "/>
   <path class="fil1" d="M2341.38 4633.04l63.48 0c29.15,0 54.4,-4.29 75.76,-12.88 21.36,-8.58 37.42,-19.67 48.22,-33.25 20.37,-26.37 30.54,-53.69 30.54,-82.06 0,-35.54 -13.59,-65.88 -40.73,-91.04 -27.16,-25.16 -65.1,-37.72 -113.82,-37.72l-165.91 0 0 420.48 102.44 0 0 -163.53 0.02 0zm0 -179.08l63.48 0c15.16,0 27.35,4.78 36.52,14.38 9.2,9.58 13.77,21.85 13.77,36.83 0,14.97 -4.48,27.04 -13.49,36.24 -8.99,9.2 -21.24,13.77 -36.83,13.77l-63.48 0 0 -101.22 0.02 0z"/>
   <path class="fil1" d="M2967.3 4374.88l-146.14 421.68 109 0.01 23.34 -70.67 150.94 0 23.37 70.67 109.6 0 -145.53 -421.68 -124.57 -0.01zm11.97 273.13l49.7 -149.74 49.7 149.74 -99.41 0z"/>
   <polygon class="fil1" points="3903.46,4796.57 3903.46,4374.88 3801.06,4374.88 3801.06,4640.23 3629.75,4374.88 3527.32,4374.88 3527.32,4796.57 3629.75,4796.57 3629.75,4531.22 3801.06,4796.57 "/>
   <polygon class="fil1" points="4342.51,4661.19 4342.51,4796.57 4444.93,4796.57 4444.93,4661.19 4590.5,4376.09 4474.29,4376.09 4394.02,4565.95 4313.17,4376.09 4196.96,4376.09 "/>
  </g>
 </g>
</svg>
