<?xml version="1.0" encoding="UTF-8"?>
<!DOCTYPE svg PUBLIC "-//W3C//DTD SVG 1.1//EN" "http://www.w3.org/Graphics/SVG/1.1/DTD/svg11.dtd">
<!-- Creator: CorelDRAW 2020 (64-Bit) -->
<svg xmlns="http://www.w3.org/2000/svg" xml:space="preserve" width="34.1379mm" height="44.797mm" version="1.1" style="shape-rendering:geometricPrecision; text-rendering:geometricPrecision; image-rendering:optimizeQuality; fill-rule:evenodd; clip-rule:evenodd"
viewBox="0 0 1086.13 1425.26"
 xmlns:xlink="http://www.w3.org/1999/xlink"
 xmlns:xodm="http://www.corel.com/coreldraw/odm/2003">
 <defs>
  <style type="text/css">
   <![CDATA[
    .fil0 {fill:none;fill-rule:nonzero}
    .fil1 {fill:black;fill-rule:nonzero}
   ]]>
  </style>
 </defs>
 <g id="Capa_x0020_1">
  <metadata id="CorelCorpID_0Corel-Layer"/>
  <g id="_1329003110720">
   <polygon class="fil0" points="106.58,1407.39 118.42,1407.39 112.5,1391.4 "/>
   <path class="fil0" d="M980.57 1393.98c0,-2.16 -0.63,-3.59 -1.9,-4.29 -1.26,-0.71 -4.24,-1.07 -8.92,-1.07l-6.84 0 0 10.91 6.46 0c4.38,0 7.34,-0.35 8.89,-1.07 1.54,-0.69 2.32,-2.2 2.32,-4.48z"/>
   <polygon class="fil0" points="710.99,1203.59 697.93,1271.03 724.58,1271.03 711.51,1203.59 "/>
   <path class="fil0" d="M966.05 213.49c-25.41,8.59 -51.45,16.28 -78.03,23.01 -78.38,19.78 -156.89,29.74 -233.34,29.74 -17.51,0 -34.69,-0.48 -51.66,-1.58l0 572.4c-0.07,0 -0.14,-0.07 -0.14,-0.07l0 2.06c16.69,1.44 34,2.2 51.79,2.2 56.74,0 115.54,-7.56 174.75,-22.53 47.95,-12.09 94.24,-28.64 136.63,-48.84l-0 -556.39z"/>
   <path class="fil0" d="M203.7 1175.11c-4.88,0 -9.11,1.52 -12.67,4.58 -3.58,3.05 -5.36,7.8 -5.36,14.25l0 98.27c0,6.45 1.78,11.2 5.36,14.25 3.57,3.05 7.79,4.58 12.67,4.58 4.88,0 9.1,-1.52 12.68,-4.58 3.57,-3.05 5.36,-7.79 5.36,-14.25l0 -98.27c0,-6.44 -1.79,-11.2 -5.36,-14.25 -3.58,-3.05 -7.8,-4.58 -12.68,-4.58z"/>
   <path class="fil0" d="M580.57 1184.26c-1.39,-2.96 -3.49,-5.23 -6.27,-6.79 -2.79,-1.57 -6.79,-2.35 -12.02,-2.35l-13.86 -0 0 63.25 12.81 0c5.4,0 9.58,-0.78 12.54,-2.35 2.96,-1.57 5.14,-3.74 6.53,-6.53 1.39,-2.61 2.23,-5.84 2.49,-9.67 0.26,-3.83 0.39,-8.11 0.39,-12.81 0,-4.36 -0.09,-8.49 -0.26,-12.41 -0.17,-3.93 -0.96,-7.37 -2.35,-10.33z"/>
   <path class="fil1" d="M603.02 22.53l0 119.87c-36.27,-10.44 -76.04,-17.45 -118.29,-20.54 -7.01,-0.55 -14.01,-0.96 -21.16,-1.24 -1.1,-0.07 -2.2,-0.14 -3.3,-0.14 -5.49,-0.34 -11.13,-0.48 -16.76,-0.62 -3.98,-0.07 -7.97,-0.14 -12.02,-0.14 -10.65,0 -21.36,0.27 -32.15,0.82 -0.41,0 -0.89,0 -1.3,0.07 -46.3,2.34 -93.7,9.62 -141.36,21.64 -47.95,12.09 -94.24,28.71 -136.56,48.91l0 556.33c25.35,-8.65 51.38,-16.28 78.03,-23.01 78.31,-19.71 156.82,-29.74 233.34,-29.74 3.98,0 8.04,0 12.02,0.07l0 119.8c-3.98,-0.14 -7.97,-0.14 -12.02,-0.14 -12.16,0 -24.38,0.27 -36.82,0.89 -0.62,0 -1.24,0.07 -1.85,0.07 -53.23,2.75 -108.94,10.99 -165.41,25.21 -85.18,21.43 -162.32,54.13 -227.09,93.83l0 -814.47c64.77,-39.7 141.92,-72.4 227.09,-93.83 70.34,-17.79 139.44,-26.17 204.08,-26.17 4.05,0 8.04,0 12.02,0.07 13.94,0.27 27.68,0.89 41.21,1.92 42.25,3.09 82.02,10.1 118.29,20.53z"/>
   <path class="fil1" d="M1085.78 841.05l0 -800.8c-64.77,39.7 -141.85,72.4 -227.02,93.9 -70.34,17.72 -139.44,26.1 -204.08,26.1 -17.58,0 -34.83,-0.62 -51.66,-1.85 -20.61,-1.51 -40.6,-3.92 -59.9,-7.14 -20.26,-3.44 -39.84,-7.83 -58.39,-13.12 -0.48,-0.14 -1.03,-0.27 -1.51,-0.41l-0.07 0 0 800.73c0.55,0.14 1.03,0.27 1.58,0.41 50.69,14.49 108.26,22.12 169.94,22.12 64.57,0 133.74,-8.38 204.08,-26.1 85.17,-21.5 162.25,-54.2 227.02,-93.84zm-431.1 0.21c-17.79,0 -35.1,-0.75 -51.79,-2.2l0 -2.06c0,0 0.07,0.07 0.14,0.07l0 -572.4c16.97,1.1 34.14,1.58 51.66,1.58 76.45,0 154.97,-9.96 233.34,-29.74 26.58,-6.73 52.62,-14.43 78.03,-23.01l0 556.4c-42.38,20.19 -88.68,36.75 -136.63,48.84 -59.21,14.97 -118.01,22.53 -174.75,22.53z"/>
   <path class="fil1" d="M74.32 1160.73c-7.84,-8.19 -18.03,-12.28 -30.58,-12.28 -6.45,0 -12.33,1.09 -17.64,3.27 -5.32,2.19 -9.89,5.19 -13.72,9.02 -3.84,3.83 -6.8,8.37 -8.89,13.59 -2.09,5.23 -3.14,10.89 -3.14,16.99l0 102.45c0,8.54 1.35,15.55 4.05,21.04 2.7,5.49 6.14,9.98 10.32,13.45 4.18,3.49 8.89,5.93 14.11,7.31 5.23,1.39 10.37,2.09 15.42,2.09 5.92,0 11.46,-1.17 16.6,-3.53 5.14,-2.35 9.62,-5.53 13.46,-9.54 3.83,-4.01 6.83,-8.58 9.02,-13.73 2.18,-5.14 3.27,-10.59 3.27,-16.33l0 -11.5 -26.66 0 0 9.15c0,3.66 -0.52,6.71 -1.57,9.15 -1.04,2.45 -2.36,4.36 -3.92,5.75 -1.74,1.39 -3.62,2.4 -5.62,3.01 -2,0.61 -3.88,0.91 -5.62,0.91 -6.1,0 -10.32,-1.83 -12.67,-5.49 -2.36,-3.66 -3.53,-8.19 -3.53,-13.59l0 -95.14c0,-6.27 1.08,-11.46 3.26,-15.55 2.18,-4.09 6.58,-6.14 13.2,-6.14 5.06,0 9.06,1.92 12.02,5.75 2.96,3.83 4.44,8.37 4.44,13.59l0 8.89 26.66 -0 0 -10.45c0,-6.44 -1.09,-12.41 -3.27,-17.9 -2.19,-5.5 -5.19,-10.24 -9.02,-14.25z"/>
   <path class="fil1" d="M234.28 1159.68c-4.36,-3.66 -9.19,-6.44 -14.51,-8.37 -5.32,-1.92 -10.67,-2.88 -16.07,-2.88 -5.41,0 -10.76,0.96 -16.07,2.88 -5.32,1.92 -10.06,4.71 -14.24,8.37 -4.36,3.83 -7.85,8.63 -10.45,14.38 -2.61,5.75 -3.92,12.38 -3.92,19.87l0 98.27c0,7.84 1.3,14.55 3.92,20.13 2.62,5.58 6.1,10.19 10.45,13.85 4.18,3.83 8.92,6.71 14.24,8.63 5.32,1.92 10.67,2.88 16.07,2.88 5.4,0 10.76,-0.96 16.07,-2.88 5.31,-1.92 10.15,-4.79 14.51,-8.63 4.18,-3.66 7.58,-8.27 10.19,-13.85 2.61,-5.58 3.92,-12.28 3.92,-20.13l0 -98.27c0,-7.49 -1.3,-14.12 -3.92,-19.87 -2.62,-5.75 -6.02,-10.54 -10.19,-14.38zm-12.55 132.51c0,6.45 -1.79,11.2 -5.36,14.25 -3.57,3.05 -7.8,4.58 -12.68,4.58 -4.88,0 -9.11,-1.52 -12.67,-4.58 -3.58,-3.05 -5.36,-7.79 -5.36,-14.25l0 -98.27c0,-6.44 1.78,-11.2 5.36,-14.25 3.57,-3.05 7.79,-4.58 12.67,-4.58 4.88,0 9.1,1.52 12.68,4.58 3.57,3.05 5.36,7.8 5.36,14.25l0 98.27z"/>
   <polygon class="fil1" points="444.4,1336.1 444.4,1150.01 418.53,1150.01 384.55,1248.55 384.03,1248.55 349.79,1150.01 324.18,1150.01 324.18,1336.1 350.84,1336.1 350.84,1222.94 351.36,1222.94 377.5,1302.91 390.82,1302.91 417.22,1222.94 417.74,1222.94 417.74,1336.1 "/>
   <path class="fil1" d="M596.25 1163.09c-4.53,-4.88 -9.58,-8.27 -15.16,-10.19 -5.58,-1.92 -12.02,-2.88 -19.34,-2.88l-39.98 0 0 186.09 26.66 0 0 -72.66 13.59 0c9.93,0 17.94,-1.7 24.04,-5.1 6.1,-3.4 10.98,-8.14 14.64,-14.24 3.14,-5.06 5.18,-10.45 6.14,-16.2 0.95,-5.75 1.43,-12.81 1.43,-21.17 0,-11.15 -0.87,-20 -2.61,-26.53 -1.74,-6.53 -4.88,-12.23 -9.41,-17.12zm-13.46 56.71c-0.26,3.83 -1.09,7.05 -2.49,9.67 -1.39,2.79 -3.57,4.97 -6.53,6.53 -2.97,1.57 -7.14,2.35 -12.54,2.35l-12.81 0 0 -63.25 13.86 0c5.23,0 9.23,0.78 12.02,2.35 2.78,1.57 4.88,3.83 6.27,6.79 1.39,2.97 2.18,6.4 2.35,10.32 0.17,3.92 0.26,8.07 0.26,12.41 0,4.72 -0.13,8.99 -0.39,12.82z"/>
   <path class="fil1" d="M722.49 1150.01l-22.21 0 -41.56 186.09 26.66 0 7.85 -39.99 36.33 0 7.85 39.99 26.66 0 -41.56 -186.09zm-24.56 121.02l13.06 -67.43 0.52 0 13.07 67.43 -26.66 0z"/>
   <polygon class="fil1" points="894.72,1262.14 894.2,1262.14 853.95,1150.01 828.34,1150.01 828.34,1336.1 855,1336.1 855,1224.24 855.52,1224.24 896.3,1336.1 921.38,1336.1 921.38,1150.01 894.72,1150.01 "/>
   <polygon class="fil1" points="1057.55,1150.01 1036.12,1223.98 1035.6,1223.98 1014.16,1150.01 985.94,1150.01 1022.53,1257.43 1022.53,1336.1 1049.18,1336.1 1049.18,1257.43 1085.77,1150.01 "/>
   <polygon class="fil1" points="-0,1388.63 12.87,1388.63 12.87,1424.52 21.57,1424.52 21.57,1388.63 34.33,1388.63 34.33,1381.3 -0,1381.3 "/>
   <path class="fil1" d="M107.96 1381.3l-16.83 43.21 9.26 0 3.59 -9.8 17.3 0 3.7 9.8 9.54 -0 -17.3 -43.21 -9.26 0zm-1.38 26.09l5.92 -15.99 5.91 15.99 -11.84 0z"/>
   <path class="fil1" d="M214.72 1408.59l10.01 0 0 5.56c-3.15,2.41 -6.57,3.61 -10.28,3.61 -4.01,0 -7.08,-1.37 -9.2,-4.12 -2.13,-2.75 -3.19,-6.49 -3.19,-11.24 0,-9.62 4.16,-14.43 12.49,-14.43 5.18,0 8.45,2.32 9.8,6.93l8.61 -1.65c-1.85,-8.46 -7.99,-12.69 -18.41,-12.69 -5.98,0 -11.05,1.85 -15.21,5.56 -4.16,3.7 -6.25,9.25 -6.25,16.64 0,6.61 1.87,12.01 5.6,16.2 3.74,4.2 9.2,6.29 16.42,6.29 7.45,0 13.59,-2.22 18.41,-6.66l0 -17.21 -18.79 -0.01 0 7.21 -0.01 0z"/>
   <polygon class="fil1" points="358.12,1381.3 349.33,1381.3 349.33,1424.52 379.76,1424.52 379.76,1417.19 358.12,1417.19 "/>
   <rect class="fil1" x="441.46" y="1381.3" width="8.78" height="43.21"/>
   <polygon class="fil1" points="540.36,1410.17 522.58,1381.3 514.09,1381.3 514.09,1424.52 522.23,1424.52 522.23,1396.3 539.71,1424.52 548.41,1424.52 548.41,1381.3 540.36,1381.3 "/>
   <polygon class="fil1" points="621.87,1405.45 643.51,1405.45 643.51,1398.16 621.87,1398.16 621.87,1388.63 645.18,1388.63 645.18,1381.3 613.09,1381.3 613.09,1424.52 646.01,1424.52 646.01,1417.19 621.87,1417.19 "/>
   <polygon class="fil1" points="785.07,1398.34 767.96,1398.34 767.96,1381.3 759.27,1381.3 759.27,1424.52 767.96,1424.52 767.96,1405.63 785.07,1405.63 785.07,1424.52 793.76,1424.52 793.76,1381.3 785.07,1381.3 "/>
   <polygon class="fil1" points="867.05,1405.45 888.69,1405.45 888.69,1398.16 867.05,1398.16 867.05,1388.63 890.36,1388.63 890.36,1381.3 858.26,1381.3 858.26,1424.52 891.19,1424.52 891.19,1417.19 867.05,1417.19 "/>
   <path class="fil1" d="M978.15 1405.45c7.59,-1.11 11.38,-5.12 11.38,-12.01 0,-4.7 -1.4,-7.89 -4.2,-9.59 -2.8,-1.7 -7.04,-2.54 -12.72,-2.54l-18.41 0 0 43.21 8.7 0 0 -18.05 1.74 0c2.47,0 4.27,0.32 5.42,0.97 1.15,0.65 2.18,1.69 3.09,3.12l9.45 13.96 10.45 0 -5.28 -8.43c-3.5,-5.55 -6.71,-9.1 -9.61,-10.64zm-8.78 -5.92l-6.46 0 0 -10.91 6.84 0c4.68,0 7.66,0.36 8.92,1.07 1.26,0.71 1.9,2.13 1.9,4.29 0,2.29 -0.78,3.79 -2.32,4.49 -1.55,0.71 -4.51,1.06 -8.9,1.06z"/>
   <polygon class="fil1" points="1061.99,1405.45 1083.63,1405.45 1083.63,1398.16 1061.99,1398.16 1061.99,1388.63 1085.29,1388.63 1085.29,1381.3 1053.2,1381.3 1053.2,1424.52 1086.13,1424.52 1086.13,1417.19 1061.99,1417.19 "/>
  </g>
 </g>
</svg>
