<?xml version="1.0" encoding="UTF-8"?>
<!DOCTYPE svg PUBLIC "-//W3C//DTD SVG 1.1//EN" "http://www.w3.org/Graphics/SVG/1.1/DTD/svg11.dtd">
<!-- Creator: CorelDRAW 2020 (64-Bit) -->
<svg xmlns="http://www.w3.org/2000/svg" xml:space="preserve" width="41.8705mm" height="43.1058mm" version="1.1" style="shape-rendering:geometricPrecision; text-rendering:geometricPrecision; image-rendering:optimizeQuality; fill-rule:evenodd; clip-rule:evenodd"
viewBox="0 0 4574.57 4709.53"
 xmlns:xlink="http://www.w3.org/1999/xlink"
 xmlns:xodm="http://www.corel.com/coreldraw/odm/2003">
 <defs>
  <style type="text/css">
   <![CDATA[
    .fil0 {fill:none;fill-rule:nonzero}
    .fil1 {fill:black;fill-rule:nonzero}
    .fil2 {fill:white;fill-rule:nonzero}
   ]]>
  </style>
 </defs>
 <g id="Capa_x0020_1">
  <metadata id="CorelCorpID_0Corel-Layer"/>
  <g id="_1328996488880">
   <path class="fil0" d="M4129.14 4577.77c0,-9.06 -2.67,-15.1 -8,-18.07 -5.31,-2.99 -17.83,-4.48 -37.57,-4.48l-28.82 0 0 45.95 27.19 0c18.44,0 30.92,-1.49 37.43,-4.48 6.54,-2.97 9.77,-9.3 9.77,-18.92z"/>
   <polygon class="fil0" points="449.02,4634.26 498.86,4634.26 473.95,4566.92 "/>
   <path class="fil0" d="M988.07 3916.6c-25.24,-15.14 -53.36,-23.07 -85.09,-23.07 -44,0 -82.94,15.14 -114.66,44.72 -31.73,29.58 -48.31,80.76 -48.31,150.73 0,56.26 15.85,100.96 46.16,133.41 31.02,31.73 69.93,48.31 116.11,48.31 46.87,0 86.54,-16.58 116.84,-49.04 30.29,-32.46 45.43,-79.33 45.43,-139.19 0,-38.22 -6.49,-72.11 -19.46,-100.25 -13.01,-28.11 -32.47,-50.46 -57.01,-65.61z"/>
   <path class="fil0" d="M1122.57 484.51l0 906.49 748.21 0 0 -395.97c-44.59,-68.87 -96.31,-133.75 -155.68,-193.02 -164.41,-164.41 -369.62,-273.15 -592.53,-317.5z"/>
   <path class="fil0" d="M1870.79 1929.05c-150.91,57.46 -289.47,146.55 -407.13,264.19 -9.44,9.44 -18.64,18.87 -27.36,28.54 -2.36,2.36 -4.72,4.95 -6.84,7.31 -8.26,8.73 -16.04,17.46 -23.59,26.42l-0.71 0.71c-0.47,0.47 -0.71,0.71 -0.94,1.18 -7.78,8.73 -15.1,17.69 -22.41,26.66 -2.36,2.83 -4.95,5.9 -7.08,8.96 -1.18,1.42 -2.36,2.83 -3.77,4.48 -6.84,8.49 -13.45,16.98 -19.58,25.71 -8.73,11.32 -16.75,22.88 -24.77,34.44 -6.37,8.96 -12.5,18.16 -18.4,27.6 -3.3,5.19 -6.61,10.14 -9.67,15.33 -0.24,0.24 -0.47,0.71 -0.71,0.94 -5.9,9.2 -11.32,18.4 -16.75,27.6 -5.66,9.44 -11.09,19.11 -16.28,28.78 -0.71,1.42 -1.65,3.07 -2.36,4.48 -2.12,3.3 -3.77,6.61 -5.43,9.91 -4.72,8.49 -9.2,17.22 -13.45,25.95 -1.65,3.3 -3.3,6.61 -4.95,10.14 -4.48,8.96 -8.73,18.16 -12.74,27.36 -1.65,3.07 -3.07,6.13 -4.25,9.44 -4.48,9.67 -8.73,19.34 -12.74,29.25 -4.48,11.32 -8.96,22.88 -13.21,34.44 -3.3,8.73 -6.61,17.69 -9.44,26.42 -3.07,8.02 -5.66,16.04 -8.26,24.06 -3.07,9.67 -5.9,19.11 -8.73,28.78 -1.42,4.95 -2.83,9.67 -4.25,14.63 -3.54,12.5 -6.84,25.24 -9.91,38.22 -3.3,13.68 -6.37,27.6 -9.2,41.52l910.29 0.02 0 -2.59 -185.41 -0.01 0 -850.82z"/>
   <path class="fil1" d="M439.25 4170.45l1.44 -4.32 -72.84 -18.02 -1.46 4.32c-8.65,38.95 -25.24,68.52 -49.04,88.69 -24.53,19.48 -54.09,29.58 -89.45,29.58 -28.84,0 -55.52,-7.22 -80.76,-21.63 -24.53,-14.43 -42.55,-36.78 -54.09,-66.35 -12.27,-29.58 -18.05,-64.92 -18.05,-104.57 0,-31.02 5.05,-61.3 15.14,-90.16 10.1,-28.84 27.41,-51.92 51.21,-69.23 24.51,-16.58 55.52,-25.24 91.59,-25.24 31.73,0 57.7,7.22 78.62,23.07 20.92,15.14 36.78,39.65 47.6,73.55l1.44 3.61 72.11 -16.58 -1.44 -4.32c-13.7,-44.72 -37.51,-80.06 -71.4,-105.3 -33.89,-24.51 -75.75,-36.78 -125.49,-36.78 -43.27,0 -83.65,9.36 -120.44,28.84 -36.04,20.19 -64.89,49.04 -84.38,86.54 -19.46,37.51 -29.55,82.23 -29.55,131.98 0,46.16 8.65,90.16 25.97,129.81 17.32,40.38 43.29,72.11 77.18,93.03 33.17,21.63 77.16,32.46 130.54,32.46 51.19,0 95.2,-14.43 131.25,-41.82 36.08,-27.4 60.61,-68.51 74.32,-121.16z"/>
   <path class="fil1" d="M1027.02 3862.51c-36.8,-21.63 -78.62,-32.46 -124.05,-32.46 -69.97,0 -127.66,23.07 -171.65,68.5 -44,45.43 -66.35,109.62 -66.35,189.68 0,42.55 9.36,82.94 28.84,121.15 18.75,38.22 46.87,68.5 83.65,90.86 36.8,22.36 78.62,33.17 124.78,33.17 43.29,0 83.65,-10.1 120.44,-30.29 37.51,-19.46 66.35,-49.77 87.25,-88.69 20.21,-38.24 30.29,-82.94 30.29,-131.98 0,-48.31 -10.1,-91.59 -28.84,-129.81 -19.45,-38.22 -47.56,-68.5 -84.36,-90.14zm-7.93 359.15c-30.29,32.46 -69.97,49.04 -116.84,49.04 -46.16,0 -85.09,-16.58 -116.11,-48.31 -30.29,-32.46 -46.16,-77.16 -46.16,-133.41 0,-69.97 16.58,-121.15 48.31,-150.73 31.73,-29.58 70.67,-44.72 114.66,-44.72 31.73,0 59.87,7.92 85.09,23.07 24.53,15.14 44,37.51 56.99,65.62 12.97,28.12 19.46,62.01 19.46,100.25 0.03,59.83 -15.11,106.72 -45.41,139.18z"/>
   <rect class="fil1" x="1796.54" y="3846.64" width="69.93" height="486.79"/>
   <path class="fil1" d="M1632.84 4246.17l-19.46 -57.7 -116.11 -341.84 -7.93 0 0 176.7 107.44 310.11 64.19 0 109.62 -309.38 0 -173.09 -116.11 331.01c-9.39,26.68 -16.6,47.6 -21.64,64.19z"/>
   <rect class="fil1" x="1392.66" y="3846.64" width="70.67" height="486.79"/>
   <rect class="fil1" x="2118.92" y="3846.64" width="72.84" height="486.79"/>
   <path class="fil1" d="M2443.45 3874.78c-16.58,-11.54 -37.51,-19.48 -61.3,-23.07 -17.32,-3.61 -42.55,-5.05 -74.98,-5.05l-89.46 0 0 64.92 94.47 0c28.84,0 48.31,1.44 59.14,4.32 15.87,4.32 28.84,12.97 38.24,26.68 10.1,13.7 14.41,29.58 14.41,49.04 0,25.97 -7.92,46.16 -24.53,60.57 -16.58,14.43 -45.43,21.63 -85.81,21.63l-95.93 -0.01 0 65.62 95.2 0.01c69.23,0 119,-15.14 145.68,-44 27.41,-28.84 41.11,-64.19 41.11,-106.03 0,-24.51 -5.05,-46.87 -15.16,-67.06 -10.81,-20.17 -23.78,-36.78 -41.09,-47.57z"/>
   <path class="fil1" d="M3017.51 3846.63l-75 0 -190.38 486.79 77.17 0 21.63 -56.97 -0.71 0 54.79 -147.82 11.54 -30.29 40.38 -107.44 0.74 -0.01c8.65,-23.8 15.87,-48.33 21.63,-72.11 7.22,23.07 17.32,51.21 29.58,82.94l49.04 126.93 -124.79 0 -22.36 59.87 170.2 -0.01 56.99 144.95 82.94 0.01 -203.38 -486.84z"/>
   <polygon class="fil1" points="3559.85,4002.41 3760.34,4296.64 3760.34,4171.89 3559.85,3878.38 "/>
   <polygon class="fil1" points="3787.76,4212.28 3786.29,4210.1 3786.29,4333.44 3858.42,4333.44 3858.42,3846.63 3787.76,3846.63 "/>
   <rect class="fil1" x="3466.11" y="3846.64" width="67.79" height="486.79"/>
   <path class="fil1" d="M4392.82 3989.44c-18.75,28.12 -35.33,54.82 -49.77,77.89l0 -0.73 -40.38 61.3 0 205.55 73.56 -0.01 0 -205.55 198.33 -281.27 -85.82 0.01 -95.93 142.81z"/>
   <polygon class="fil1" points="4297.64,3993.05 4200.27,3846.63 4110.84,3846.63 4286.81,4104.82 4327.9,4041.35 "/>
   <polygon class="fil1" points="0.23,4555.22 54.43,4555.22 54.43,4706.35 91.04,4706.35 91.04,4555.22 144.8,4555.22 144.8,4524.42 0.23,4524.42 "/>
   <path class="fil1" d="M454.82 4524.42l-70.86 181.96 38.99 -0.01 15.14 -41.28 72.84 0 15.59 41.28 40.15 0 -72.84 -181.96 -39.02 0.01zm-5.8 109.85l24.93 -67.34 24.91 67.34 -49.84 0z"/>
   <path class="fil1" d="M904.36 4639.31l42.15 0 0 23.4c-13.25,10.14 -27.67,15.22 -43.27,15.22 -16.87,0 -29.79,-5.78 -38.77,-17.36 -8.98,-11.58 -13.45,-27.34 -13.45,-47.32 0,-40.52 17.52,-60.79 52.57,-60.79 21.82,0 35.57,9.75 41.28,29.2l36.23 -6.94c-7.81,-35.64 -33.64,-53.45 -77.54,-53.45 -25.17,0 -46.52,7.81 -64.07,23.4 -17.52,15.59 -26.28,38.97 -26.28,70.11 0,27.84 7.86,50.57 23.59,68.24 15.73,17.67 38.75,26.49 69.14,26.49 31.4,0 57.23,-9.36 77.51,-28.05l0 -72.49 -79.11 -0.01 0 30.33 0.02 0z"/>
   <polygon class="fil1" points="1508.17,4524.42 1471.19,4524.42 1471.19,4706.35 1599.29,4706.35 1599.29,4675.54 1508.17,4675.54 "/>
   <rect class="fil1" x="1859.09" y="4524.41" width="37" height="181.96"/>
   <polygon class="fil1" points="2275.57,4645.97 2200.69,4524.42 2164.93,4524.42 2164.93,4706.35 2199.19,4706.35 2199.19,4587.56 2272.8,4706.35 2309.41,4706.35 2309.41,4524.42 2275.57,4524.42 "/>
   <polygon class="fil1" points="2618.77,4626.08 2709.9,4626.08 2709.9,4595.37 2618.77,4595.37 2618.77,4555.22 2716.92,4555.22 2716.92,4524.42 2581.79,4524.42 2581.79,4706.35 2720.46,4706.35 2720.46,4675.54 2618.77,4675.54 "/>
   <polygon class="fil1" points="3305.94,4596.12 3233.95,4596.12 3233.95,4524.42 3197.32,4524.42 3197.32,4706.35 3233.95,4706.35 3233.95,4626.83 3305.94,4626.83 3305.94,4706.35 3342.55,4706.35 3342.55,4524.42 3305.94,4524.42 "/>
   <polygon class="fil1" points="3651.15,4626.08 3742.28,4626.08 3742.28,4595.37 3651.15,4595.37 3651.15,4555.22 3749.31,4555.22 3749.31,4524.42 3614.17,4524.42 3614.17,4706.35 3752.85,4706.35 3752.85,4675.54 3651.15,4675.54 "/>
   <path class="fil1" d="M4118.98 4626.08c31.94,-4.7 47.93,-21.56 47.93,-50.6 0,-19.79 -5.9,-33.24 -17.69,-40.38 -11.8,-7.12 -29.65,-10.71 -53.57,-10.71l-77.52 -0.01 0 181.96 36.61 0 0 -76 7.31 0c10.4,0 17.99,1.37 22.83,4.09 4.84,2.73 9.18,7.1 13.05,13.11l39.75 58.78 44.04 0 -22.27 -35.48c-14.75,-23.3 -28.24,-38.24 -40.48,-44.77zm-37.02 -24.91l-27.19 0 0 -45.95 28.82 0c19.72,0 32.24,1.49 37.57,4.48 5.33,2.97 8,9.01 8,18.07 0,9.65 -3.26,15.94 -9.75,18.92 -6.5,2.99 -19,4.48 -37.45,4.48z"/>
   <polygon class="fil1" points="4472,4626.08 4563.13,4626.08 4563.13,4595.37 4472,4595.37 4472,4555.22 4570.15,4555.22 4570.15,4524.42 4434.99,4524.42 4434.99,4706.35 4573.67,4706.35 4573.67,4675.54 4472,4675.54 "/>
   <path class="fil1" d="M2059.49 2779.88l-3.3 0 0 2.59 -910.27 0.01c2.83,-13.92 5.9,-27.84 9.2,-41.52 3.07,-12.97 6.37,-25.71 9.91,-38.22 1.42,-4.95 2.83,-9.67 4.25,-14.63 2.83,-9.67 5.66,-19.11 8.73,-28.78 2.59,-8.02 5.19,-16.04 8.26,-24.06 2.83,-8.73 6.13,-17.69 9.44,-26.42 4.25,-11.56 8.73,-23.12 13.21,-34.44 4.01,-9.91 8.26,-19.58 12.74,-29.25 1.18,-3.3 2.59,-6.37 4.25,-9.44 4.01,-9.2 8.26,-18.4 12.74,-27.36 1.65,-3.54 3.3,-6.84 4.95,-10.14 4.25,-8.73 8.73,-17.46 13.45,-25.95 1.65,-3.3 3.3,-6.61 5.43,-9.91 0.71,-1.42 1.65,-3.07 2.36,-4.48 5.19,-9.67 10.62,-19.34 16.28,-28.78 5.43,-9.2 10.85,-18.4 16.75,-27.6 0.24,-0.24 0.47,-0.71 0.71,-0.94 3.07,-5.19 6.37,-10.14 9.67,-15.33 5.9,-9.44 12.03,-18.64 18.4,-27.6 8.02,-11.56 16.04,-23.12 24.77,-34.44 6.13,-8.73 12.74,-17.22 19.58,-25.71 1.42,-1.65 2.59,-3.07 3.77,-4.48 2.12,-3.07 4.72,-6.13 7.08,-8.96 7.31,-8.96 14.63,-17.93 22.41,-26.66 0.24,-0.47 0.47,-0.71 0.94,-1.18l0.71 -0.71c7.55,-8.96 15.33,-17.69 23.59,-26.42 2.12,-2.36 4.48,-4.95 6.84,-7.31 8.73,-9.67 17.93,-19.11 27.36,-28.54 117.66,-117.66 256.21,-206.72 407.13,-264.19l0 -75.71 -720.64 -0.02c-4.48,4.25 -8.73,8.49 -12.97,12.74 -149.08,148.84 -266.31,322.22 -348.39,515.4 -84.91,200.26 -128.08,412.56 -128.56,631.69l-0.24 137.05 0 94.35 1854.51 0 0 -1391.23 0.23 0 0 -110.39 -0.24 -215.12 0 -1041.89 0.91 0 0 0 3.02 0 0 0 0.1 0 0 -0.71 910.26 0c-45.06,221.73 -154.03,425.77 -317.74,589.23 -92.23,91.99 -197.19,166.77 -311.13,222.2l733.59 -0.01c104.26,-123.6 188.95,-261.12 252.39,-410.67 84.68,-200.02 127.85,-412.56 128.32,-631.45l0.47 -231.63 -1855.21 -0.01 0 2756.99z"/>
   <path class="fil1" d="M1122.57 1391l0 -906.49c222.91,44.35 428.13,153.09 592.53,317.5 59.37,59.28 111.12,124.15 155.68,193.02l0 -668.59c-106.17,-80.13 -221.63,-146.9 -345.09,-199.06 -200.26,-84.68 -412.8,-127.38 -631.93,-127.38l-233.51 0.01 0 1758.97 1210.54 0 0 -367.97 -748.21 -0.01z"/>
   <path class="fil1" d="M2704.87 1758.99l724.15 0 0 1000.84c-223.14,-44.11 -428.13,-153.09 -592.53,-317.27 -48.83,-48.83 -92.93,-101.19 -131.62,-156.39l0 649.85c99.3,72.18 206.86,132.8 321.04,180.93 200.26,84.68 412.8,127.61 631.93,127.61l233.28 0.01 0 -1853.56 -1186.25 -0.01 0 367.98z"/>
   <polygon class="fil2" points="2515.41,485.93 2515.41,485.93 2515.41,3244.59 2518.43,3244.59 2518.43,1853.34 2518.81,1853.34 2518.74,1837.32 2518.43,1622.26 2518.43,485.93 2518.43,485.93 "/>
  </g>
 </g>
</svg>
