<?xml version="1.0" encoding="UTF-8"?>
<!DOCTYPE svg PUBLIC "-//W3C//DTD SVG 1.1//EN" "http://www.w3.org/Graphics/SVG/1.1/DTD/svg11.dtd">
<!-- Creator: CorelDRAW 2020 (64-Bit) -->
<svg xmlns="http://www.w3.org/2000/svg" xml:space="preserve" width="47.097mm" height="36.565mm" version="1.1" style="shape-rendering:geometricPrecision; text-rendering:geometricPrecision; image-rendering:optimizeQuality; fill-rule:evenodd; clip-rule:evenodd"
viewBox="0 0 2351.23 1825.44"
 xmlns:xlink="http://www.w3.org/1999/xlink"
 xmlns:xodm="http://www.corel.com/coreldraw/odm/2003">
 <defs>
  <style type="text/css">
   <![CDATA[
    .fil0 {fill:none;fill-rule:nonzero}
    .fil1 {fill:black;fill-rule:nonzero}
   ]]>
  </style>
 </defs>
 <g id="Capa_x0020_1">
  <metadata id="CorelCorpID_0Corel-Layer"/>
  <g id="_1328996510432">
   <polygon class="fil0" points="1540.54,412.04 1176.23,822.81 1904.85,822.81 "/>
   <polygon class="fil0" points="811.27,411.4 1539.89,411.4 1175.58,0.74 "/>
   <path class="fil0" d="M1898.02 1753.11l-4.23 0 0 24.97 3.77 0c11.24,0 16.87,-4.3 16.87,-12.89 0,-8.05 -5.46,-12.09 -16.4,-12.09z"/>
   <polygon class="fil0" points="1497.9,1557.97 1564.42,1557.97 1530.93,1481.58 "/>
   <path class="fil0" d="M1246.06 1466.68c-3.64,-4.34 -8.42,-7.72 -14.35,-10.13 -5.93,-2.4 -13.3,-3.61 -22.14,-3.61l-21.98 -0 0 86.99 15.9 0c11.23,0 20.34,-1.55 27.36,-4.65 7.02,-3.1 12.29,-6.96 15.82,-11.59 3.53,-4.44 5.86,-9.04 7.02,-13.81 1.14,-4.76 1.71,-9.04 1.71,-12.84 0,-5.27 -0.7,-10.64 -2.1,-16.09 -1.4,-5.44 -3.82,-10.2 -7.24,-14.28z"/>
   <path class="fil0" d="M490.42 1474.17c-5.71,-7.86 -12.88,-13.99 -21.51,-18.39 -8.62,-4.4 -18.5,-6.59 -29.62,-6.59 -12.47,0 -23.07,2.55 -31.81,7.63 -8.73,5.09 -15.85,11.89 -21.35,20.39 -5.2,8.14 -9.07,17.67 -11.61,28.59 -2.56,10.92 -3.81,22.39 -3.81,34.41 0,13.32 1.35,25.34 4.05,36.07 2.7,10.73 6.95,20.25 12.79,28.59 5.61,8.14 12.68,14.5 21.2,19.08 8.52,4.58 18.71,6.86 30.56,6.86 11.11,0 21.15,-2.31 30.08,-6.94 8.94,-4.62 16.21,-11.1 21.83,-19.43 5.82,-8.42 10.05,-17.95 12.71,-28.59 2.65,-10.64 3.98,-22.52 3.98,-35.66 0,-13.5 -1.48,-25.9 -4.44,-37.19 -3,-11.26 -7.33,-20.88 -13.04,-28.85z"/>
   <polygon class="fil0" points="434.82,1790.38 458.73,1790.38 447.06,1763.62 "/>
   <polygon class="fil0" points="810.74,412.04 810.63,412.04 446.32,822.81 1174.93,822.81 "/>
   <polygon class="fil1" points="258.63,1753.11 276.73,1753.11 276.73,1820.65 288.61,1820.65 288.61,1753.11 306.65,1753.11 306.65,1741.96 258.63,1741.96 "/>
   <path class="fil1" d="M408.32 1820.65l12.8 0 8.76 -19.11 33.7 0 8.26 19.11 12.99 -0 -37.56 -83.64 -38.94 83.64zm26.5 -30.27l12.23 -26.75 11.67 26.75 -23.9 0z"/>
   <path class="fil1" d="M632.89 1751.63c9.28,0 17.14,4.3 23.6,12.89l8.46 -8.11c-4.93,-5.64 -9.94,-9.71 -15.04,-12.23 -5.34,-2.51 -11.08,-3.77 -17.22,-3.77 -11.45,0 -21.17,3.99 -29.16,11.98 -7.99,7.95 -11.98,17.63 -11.98,29.05 0,11.18 3.92,20.76 11.78,28.75 7.85,7.95 17.28,11.93 28.28,11.93 11.27,0 20.58,-4.11 27.88,-12.33 3.23,-3.66 5.52,-7.61 6.87,-11.82 1.39,-4.55 2.09,-9.78 2.09,-15.7l0 -2.6 -32.51 0 0 11.16 19.62 0c-0.55,5.54 -3.15,10.29 -7.8,14.27 -4.66,3.94 -9.9,5.92 -15.75,5.92 -6.86,0 -13.23,-2.63 -19.11,-7.9 -6.29,-5.67 -9.43,-12.89 -9.43,-21.67 0,-8.49 2.83,-15.57 8.46,-21.2 5.61,-5.73 12.6,-8.61 20.93,-8.61z"/>
   <polygon class="fil1" points="836.59,1741.96 836.59,1820.65 871.6,1820.65 871.6,1809.49 848.46,1809.49 848.46,1741.96 "/>
   <rect class="fil1" x="987.24" y="1741.96" width="11.88" height="78.69"/>
   <polygon class="fil1" points="1191.67,1825.44 1191.67,1741.96 1179.8,1741.96 1179.8,1796.65 1122.41,1736.6 1122.41,1820.65 1134.28,1820.65 1134.28,1765.55 "/>
   <polygon class="fil1" points="1358.34,1753.11 1358.34,1741.96 1314.91,1741.96 1314.91,1820.65 1358.34,1820.65 1358.34,1809.49 1326.79,1809.49 1326.79,1783.19 1357.41,1783.19 1357.41,1772.03 1326.79,1772.03 1326.79,1753.11 "/>
   <polygon class="fil1" points="1595.28,1820.65 1595.28,1741.96 1583.4,1741.96 1583.4,1772.74 1549.45,1772.74 1549.45,1741.96 1537.57,1741.96 1537.57,1820.65 1549.45,1820.65 1549.45,1783.91 1583.4,1783.91 1583.4,1820.65 "/>
   <polygon class="fil1" points="1761.94,1753.11 1761.94,1741.96 1718.51,1741.96 1718.51,1820.65 1761.94,1820.65 1761.94,1809.49 1730.39,1809.49 1730.39,1783.19 1761.02,1783.19 1761.02,1772.03 1730.39,1772.03 1730.39,1753.11 "/>
   <path class="fil1" d="M1926.01 1765.04c0,-7.13 -2.55,-12.88 -7.64,-17.22 -4.62,-3.9 -12.14,-5.86 -22.53,-5.86l-13.91 0 0 78.69 11.88 -0 0 -32.21 2.15 0 22.48 32.21 14.52 0 -24.36 -33.53c5.23,-1.12 9.44,-3.68 12.65,-7.7 3.17,-4.01 4.77,-8.8 4.77,-14.37zm-28.45 13.05l-3.77 0 0 -24.97 4.23 -0c10.94,0 16.41,4.03 16.41,12.08 -0.01,8.59 -5.63,12.9 -16.88,12.9z"/>
   <polygon class="fil1" points="2049.14,1820.65 2092.56,1820.65 2092.56,1809.49 2061.02,1809.49 2061.02,1783.19 2091.65,1783.19 2091.65,1772.03 2061.02,1772.03 2061.02,1753.11 2092.56,1753.11 2092.56,1741.96 2049.14,1741.96 "/>
   <path class="fil1" d="M167.24 1600.71c-3.94,5.18 -8.52,9.81 -13.7,13.87 -5.2,3.88 -11.32,7 -18.38,9.37 -7.06,2.36 -14.8,3.53 -23.2,3.53 -11.21,0 -21.36,-2.22 -30.44,-6.66 -9.09,-4.44 -16.94,-10.59 -23.58,-18.46 -6.64,-7.97 -11.76,-17.19 -15.34,-27.7 -3.58,-10.51 -5.37,-22.05 -5.37,-34.64 0,-14.26 1.71,-27.17 5.14,-38.74 3.43,-11.57 8.15,-21.1 14.17,-28.61 6.34,-7.77 13.83,-13.65 22.5,-17.63 8.67,-3.98 18.03,-5.97 28.1,-5.97 8.83,0 16.66,1.78 23.52,5.35 6.84,3.57 12.76,8.49 17.74,14.78 4.46,5.55 8.35,12.32 11.67,20.33 3.32,8 5.81,15.43 7.48,22.27l12.78 -0 -1.4 -70.2 -12.47 0 -6.38 9.43c-8,-4.34 -16.4,-7.73 -25.23,-10.13 -8.83,-2.4 -18.69,-3.61 -29.58,-3.61 -14.65,0 -28.4,2.5 -41.27,7.5 -12.88,5 -24.04,12.08 -33.48,21.24 -9.55,9.26 -17.03,20.29 -22.43,33.11 -5.4,12.82 -8.09,27.1 -8.09,42.83 0,15.74 2.75,29.87 8.26,42.41 5.5,12.55 12.88,23.16 22.12,31.86 9.35,8.7 20.07,15.37 32.16,19.99 12.09,4.62 24.75,6.94 37.93,6.94 20.35,0 37.9,-4.18 52.64,-12.56 14.75,-8.38 26.58,-22.31 35.52,-41.83l-11.68 -4.99c-2.53,6.09 -5.76,11.72 -9.7,16.91z"/>
   <path class="fil1" d="M537.19 1582.81c5.62,-12.76 8.42,-26.96 8.42,-42.59 0,-15.54 -2.76,-29.71 -8.27,-42.52 -5.51,-12.81 -13.15,-23.74 -22.91,-32.81 -9.45,-8.88 -20.68,-15.77 -33.67,-20.67 -12.99,-4.9 -26.8,-7.35 -41.47,-7.35 -14.13,0 -27.67,2.4 -40.61,7.21 -12.94,4.81 -24.29,11.75 -34.06,20.81 -9.87,9.16 -17.61,20 -23.23,32.53 -5.62,12.54 -8.42,26.8 -8.42,42.8 0,14.62 2.67,28.33 8.03,41.13 5.36,12.82 12.71,23.7 22.06,32.67 9.36,9.15 20.54,16.29 33.6,21.44 13.04,5.13 27.26,7.7 42.64,7.7 14.44,0 28.06,-2.4 40.84,-7.21 12.79,-4.81 24,-11.65 33.67,-20.53 9.98,-8.96 17.77,-19.84 23.38,-32.6zm-33.28 -6.94c-2.65,10.64 -6.89,20.16 -12.71,28.59 -5.62,8.32 -12.89,14.8 -21.83,19.43 -8.95,4.62 -18.97,6.94 -30.08,6.94 -11.85,0 -22.03,-2.29 -30.56,-6.86 -8.53,-4.58 -15.59,-10.94 -21.2,-19.08 -5.83,-8.32 -10.09,-17.85 -12.79,-28.59 -2.71,-10.72 -4.05,-22.75 -4.05,-36.07 0,-12.02 1.27,-23.5 3.81,-34.41 2.55,-10.91 6.42,-20.43 11.61,-28.59 5.51,-8.5 12.62,-15.31 21.35,-20.39 8.73,-5.09 19.34,-7.63 31.81,-7.63 11.11,0 21,2.2 29.62,6.59 8.62,4.4 15.8,10.52 21.51,18.39 5.71,7.95 10.05,17.57 13.02,28.86 2.97,11.28 4.44,23.68 4.44,37.19 0.01,13.13 -1.31,25.02 -3.96,35.65z"/>
   <path class="fil1" d="M727.39 1610c-1.35,5.37 -3.85,9.35 -7.48,11.93 -2.8,2.04 -6.78,3.57 -11.93,4.58 -5.14,1.01 -10.05,1.71 -14.73,2.08l0 9.85 89.32 0 0 -9.85c-2.19,-0.08 -6.85,-1.01 -14.03,-2.77 -7.17,-1.76 -11.9,-3.61 -14.18,-5.55 -3.33,-2.59 -5.8,-6.84 -7.4,-12.76 -1.61,-5.92 -2.42,-14.57 -2.42,-25.95l0 -117.52 2.03 0 71.86 171.21 7.79 0 75.45 -167.73 2.34 -0 0 143.18c0,3.43 -0.75,6.28 -2.26,8.54 -1.51,2.26 -3.87,4.28 -7.09,6.04 -2.08,1.02 -5.9,1.8 -11.46,2.36 -5.56,0.55 -10.11,0.88 -13.63,0.97l0 9.85 97.73 0 0 -9.85c-2.8,-0.08 -6.59,-0.53 -11.38,-1.31 -4.79,-0.79 -8.11,-1.64 -9.97,-2.57 -3.53,-1.66 -5.93,-3.61 -7.17,-5.83 -1.25,-2.22 -1.88,-4.95 -1.88,-8.18l0 -141.96c0,-3.05 0.62,-5.88 1.88,-8.46 1.25,-2.59 3.63,-4.44 7.17,-5.55 2.08,-0.65 5.38,-1.34 9.89,-2.08 4.52,-0.74 8.23,-1.15 11.14,-1.25l0 -9.85 -72.13 0c-0.11,1.67 -0.86,4.98 -2.26,9.92 -1.4,4.95 -3.1,9.69 -5.06,14.23l-54.1 123.62 -63.37 -147.77 -75.42 0 0 9.85c4.57,0.18 9.2,0.88 13.87,2.08 4.68,1.2 8.62,3.05 11.85,5.55 2.91,2.32 5.14,5.33 6.7,9.02 1.56,3.7 2.34,8.46 2.34,14.29l0 100.72c0,12.58 -0.67,21.55 -2.02,26.91z"/>
   <path class="fil1" d="M1287.29 1517.39c4.53,-7.91 6.78,-17 6.78,-27.26 0,-14.7 -6.42,-26.47 -19.25,-35.31 -12.84,-8.83 -29.54,-13.24 -50.12,-13.24l-101.02 -0 0 9.85c2.8,0.18 6.16,0.53 10.05,1.04 3.89,0.5 7.81,1.37 11.77,2.57 3.84,1.29 6.29,3.24 7.33,5.83 1.03,2.59 1.56,5.51 1.56,8.74l0 142.07c0,3.61 -0.7,6.56 -2.1,8.88 -1.4,2.32 -3.66,4.07 -6.78,5.27 -1.87,0.74 -5.17,1.34 -9.9,1.8 -4.73,0.46 -8.34,0.79 -10.83,0.97l0 9.85 94.94 0 0 -9.85c-3.94,-0.08 -8.29,-0.42 -13.02,-0.97 -4.73,-0.56 -8.03,-1.15 -9.89,-1.8 -3.74,-1.29 -6.21,-3.17 -7.4,-5.62 -1.2,-2.45 -1.79,-5.29 -1.79,-8.54l0 -59.66 24.79 0c10.59,0 20.63,-1.21 30.08,-3.61 9.45,-2.4 18.14,-6.2 26.03,-11.37 8,-5.2 14.26,-11.74 18.78,-19.65zm-33.6 -7.49c-1.14,4.76 -3.48,9.37 -7.02,13.81 -3.53,4.62 -8.81,8.48 -15.82,11.59 -7.02,3.11 -16.14,4.65 -27.36,4.65l-15.9 -0 0 -86.99 21.98 0c8.83,0 16.21,1.21 22.14,3.61 5.92,2.4 10.7,5.78 14.35,10.13 3.43,4.07 5.84,8.83 7.24,14.29 1.4,5.47 2.1,10.82 2.1,16.09 -0,3.79 -0.57,8.07 -1.72,12.83z"/>
   <path class="fil1" d="M1653.42 1628.59c-2.6,-0.08 -5.82,-0.58 -9.66,-1.45 -3.85,-0.88 -6.96,-1.96 -9.36,-3.26 -3.53,-2.12 -6.29,-4.3 -8.27,-6.52 -1.97,-2.22 -3.74,-5.13 -5.3,-8.74l-73.74 -169.81 -12.47 -0c-10.5,24.05 -22.45,51.48 -35.85,82.27 -13.41,30.8 -25.68,58.55 -36.79,83.24 -2.19,4.81 -4.42,8.58 -6.7,11.31 -2.29,2.73 -5.51,5.35 -9.67,7.84 -2.6,1.48 -5.93,2.66 -9.97,3.53 -4.05,0.87 -7.44,1.41 -10.13,1.6l0 9.85 83.31 -0 0 -9.85c-8.21,-0.36 -15.6,-1.57 -22.14,-3.61 -6.54,-2.04 -9.82,-4.9 -9.82,-8.6 0,-1.57 0.26,-3.61 0.77,-6.1 0.52,-2.5 1.45,-5.74 2.81,-9.71 1.45,-4.07 3.1,-8.5 4.92,-13.32 1.82,-4.81 4.19,-10.45 7.1,-16.92l77.65 0 18.32 44.12c0.42,0.93 0.72,1.99 0.94,3.19 0.2,1.21 0.31,2.22 0.31,3.05 0,2.04 -2.69,3.75 -8.03,5.13 -5.36,1.39 -12.08,2.31 -20.19,2.77l0 9.85 91.95 -0 0 -9.83 -0.01 0zm-155.52 -70.62l33.02 -76.4 33.51 76.4 -66.53 0z"/>
   <path class="fil1" d="M1980.19 1640.38l0 -144.15c0,-10.08 0.65,-18.41 1.95,-24.97 1.3,-6.56 3.81,-11 7.57,-13.32 2.6,-1.48 6.91,-2.91 12.94,-4.3 6.03,-1.39 10.5,-2.12 13.41,-2.22l0 -9.85 -89.95 -0 0 9.85c3.43,0.18 8.44,1.11 15.05,2.77 6.59,1.67 11.35,3.37 14.26,5.13 3.12,2.04 5.51,6.12 7.17,12.28 1.66,6.16 2.5,14.96 2.5,26.43l0 93.63 -124.33 -150.09 -63.2 0 0 9.85c3.94,0.18 9.12,1.37 15.51,3.53 6.39,2.18 11.46,4.79 15.2,7.84 2.8,2.32 5.04,5.6 6.7,9.85 1.66,4.26 2.49,8.52 2.49,12.76l0 96.99c0,12.86 -0.68,21.95 -2.03,27.26 -1.35,5.33 -3.85,9.27 -7.48,11.87 -1.66,1.29 -5.82,2.75 -12.47,4.38 -6.65,1.62 -11.38,2.52 -14.18,2.71l0 9.85 90.72 0 0 -9.85c-2.39,-0.08 -7.33,-1.01 -14.81,-2.77 -7.48,-1.76 -12.42,-3.65 -14.81,-5.69 -3.33,-2.59 -5.8,-6.94 -7.4,-13.04 -1.61,-6.1 -2.42,-14.84 -2.42,-26.22l0 -101.55 134.06 161.07 13.55 -0z"/>
   <path class="fil1" d="M2274.32 1441.57l0 9.85c3.01,0.28 6.29,0.53 9.82,0.76 3.53,0.22 6.81,0.71 9.82,1.45 2.91,0.74 5.25,1.76 7.02,3.05 1.77,1.29 2.65,3 2.65,5.12 0,2.59 -4.29,10.42 -12.86,23.5 -8.57,13.08 -21,31.32 -37.3,54.71 -8.19,-13.13 -14.82,-23.79 -19.91,-31.97 -5.08,-8.18 -10.05,-16.39 -14.93,-24.62 -1.66,-2.87 -3.43,-5.85 -5.29,-8.95 -1.86,-3.1 -3.47,-5.84 -4.82,-8.26 -1.14,-2.12 -2.03,-3.88 -2.65,-5.26 -0.62,-1.38 -0.94,-2.35 -0.94,-2.91 0,-2.03 2.19,-3.59 6.54,-4.7 4.36,-1.1 11.85,-1.75 22.45,-1.94l0 -9.85 -94.4 0 0 9.85c2.8,0.18 5.95,0.65 9.43,1.39 3.48,0.74 6.47,1.8 8.97,3.19 3.43,2.04 6.47,4.4 9.12,7.07 2.65,2.69 5.69,6.66 9.12,11.93 5.62,8.88 12.21,19.56 19.8,32.05 7.59,12.48 14.5,24.1 20.74,34.83 2.8,4.81 5.22,9.18 7.24,13.1 2.03,3.93 3.04,6.64 3.04,8.12l0 47.87c0,3.51 -0.7,6.48 -2.1,8.88 -1.4,2.4 -3.98,4.3 -7.72,5.69 -2.29,0.83 -6.34,1.51 -12.16,2.02 -5.82,0.5 -10.18,0.86 -13.09,1.04l0 9.85 103.5 0 0 -9.85c-3.43,-0.08 -7.95,-0.67 -13.56,-1.74 -5.62,-1.07 -9.51,-1.96 -11.7,-2.71 -3.63,-1.48 -6.21,-3.45 -7.72,-5.9 -1.51,-2.45 -2.26,-5.35 -2.26,-8.68l0 -37.6c0,-6.84 0.62,-12.07 1.87,-15.67 1.24,-3.6 3.79,-8.36 7.64,-14.29 10.29,-16.09 18.86,-29.36 25.73,-39.81 6.85,-10.45 14.35,-20.76 22.44,-30.94 4.15,-5.09 6.96,-8.23 8.42,-9.43 1.45,-1.2 4.2,-2.91 8.27,-5.13 1.66,-1.11 4.42,-2.24 8.27,-3.39 3.85,-1.15 6.65,-1.78 8.42,-1.88l0 -9.85 -76.91 0 0 -0.01z"/>
   <polygon class="fil1" points="446.32,822.81 445.67,823.57 810.63,1234.98 1175.58,823.57 1174.93,822.81 "/>
   <polygon class="fil1" points="1176.23,822.81 1175.58,823.57 1540.54,1234.98 1905.49,823.57 1904.85,822.81 "/>
   <polygon class="fil1" points="1174.93,822.81 1175.58,823.57 1175.04,822.81 "/>
   <polygon class="fil1" points="445.67,823.57 446.32,822.81 810.63,412.04 809.98,411.4 80.18,411.4 445.02,822.81 "/>
   <polygon class="fil1" points="1904.85,822.81 1905.49,823.57 1906.14,822.81 2271.1,411.4 1541.18,411.4 1540.54,412.04 "/>
   <polygon class="fil1" points="1175.58,0.74 1174.93,0 445.02,0 809.98,411.4 811.27,411.4 "/>
   <polygon class="fil1" points="1539.89,411.4 1541.18,411.4 1906.14,0 1176.23,0 1174.93,0 1175.58,0.74 "/>
   <polygon class="fil1" points="810.74,412.04 1174.93,822.81 1175.04,822.81 1175.58,823.57 1176.23,822.81 1540.54,412.04 1541.18,411.4 1539.89,411.4 811.27,411.4 809.98,411.4 810.63,412.04 "/>
  </g>
 </g>
</svg>
