<?xml version="1.0" encoding="UTF-8"?>
<!DOCTYPE svg PUBLIC "-//W3C//DTD SVG 1.1//EN" "http://www.w3.org/Graphics/SVG/1.1/DTD/svg11.dtd">
<!-- Creator: CorelDRAW 2020 (64-Bit) -->
<svg xmlns="http://www.w3.org/2000/svg" xml:space="preserve" width="36.8379mm" height="43.4841mm" version="1.1" style="shape-rendering:geometricPrecision; text-rendering:geometricPrecision; image-rendering:optimizeQuality; fill-rule:evenodd; clip-rule:evenodd"
viewBox="0 0 792.76 935.78"
 xmlns:xlink="http://www.w3.org/1999/xlink"
 xmlns:xodm="http://www.corel.com/coreldraw/odm/2003">
 <defs>
  <style type="text/css">
   <![CDATA[
    .fil0 {fill:none;fill-rule:nonzero}
    .fil1 {fill:black;fill-rule:nonzero}
   ]]>
  </style>
 </defs>
 <g id="Capa_x0020_1">
  <metadata id="CorelCorpID_0Corel-Layer"/>
  <g id="_1328998490288">
   <path class="fil0" d="M593.97 913.74l-2.77 0 0 5.49 2.77 0c1.53,0 2.77,-1.24 2.77,-2.73 -0.01,-1.53 -1.24,-2.77 -2.77,-2.77z"/>
   <polygon class="fil0" points="515.18,835.58 528.87,835.58 521.97,816.55 "/>
   <path class="fil0" d="M416.13 808.65l-6.79 0 0 16.81 6.79 0c4.67,0 8.46,-3.78 8.46,-8.35 0,-4.67 -3.78,-8.46 -8.46,-8.46z"/>
   <polygon class="fil0" points="230.41,922.54 234.88,922.54 232.63,916.33 "/>
   <path class="fil0" d="M160.15 808.65c-14.02,0 -25.37,11.35 -25.37,25.26 0,14.02 11.35,25.38 25.37,25.38 13.91,0 25.27,-11.35 25.27,-25.38 0,-13.91 -11.35,-25.26 -25.27,-25.26z"/>
   <polygon class="fil1" points="0.23,243.18 77.4,198.62 259.02,93.71 259.02,555.36 319.23,590.11 376.33,557.17 396.45,545.56 336.24,510.8 336.24,40 267.01,0 259.02,4.6 77.4,109.46 0.23,154.02 "/>
   <polygon class="fil1" points="792.63,154.02 525.85,0 456.62,40 456.62,534.03 396.45,568.79 319.23,613.34 267.01,643.54 77.4,534.03 77.4,221.86 0.23,266.41 0.23,555.36 267.01,709.43 396.45,634.72 399.52,632.9 473.63,590.11 533.8,555.36 533.8,93.71 715.41,198.62 792.63,243.18 "/>
   <polygon class="fil1" points="715.41,510.8 525.85,620.31 493.74,601.73 473.63,613.34 416.52,646.33 525.85,709.43 792.63,555.36 792.63,266.41 715.41,221.86 "/>
   <polygon class="fil1" points="178.02,913.74 185.76,913.74 185.76,935.78 191.29,935.78 191.29,913.74 199.03,913.74 199.03,908.22 178.02,908.22 "/>
   <path class="fil1" d="M229.72 908.22l-9.96 27.56 5.85 0 2.8 -7.71 8.47 0 2.8 7.71 5.85 0 -9.96 -27.56 -5.86 0zm0.69 14.33l2.22 -6.22 2.25 6.22 -4.47 0z"/>
   <path class="fil1" d="M289.38 921.45l-5.52 0 -2.73 0 0 5.53 6.62 0c-1.53,2 -3.93,3.31 -6.62,3.31 -4.58,0 -8.29,-3.71 -8.29,-8.29 0,-4.55 3.71,-8.25 8.29,-8.25 2.15,0 4.14,0.84 5.6,2.22l3.89 -3.93c-2.47,-2.37 -5.82,-3.82 -9.49,-3.82 -7.6,0 -13.78,6.18 -13.78,13.78 0,7.6 6.18,13.78 13.78,13.78 7.6,0 13.78,-6.18 13.78,-13.78 0,-0.18 -0.04,-0.36 -0.04,-0.54l-5.49 0 0 -0z"/>
   <polygon class="fil1" points="335.27,908.22 329.78,908.22 329.78,935.78 345.31,935.78 345.31,930.25 335.27,930.25 "/>
   <rect class="fil1" x="369.67" y="908.21" width="5.49" height="27.56"/>
   <polygon class="fil1" points="416.97,926.61 405.96,908.22 399.51,908.22 399.51,935.78 405.01,935.78 405.01,917.41 416.07,935.78 422.46,935.78 422.46,908.22 416.97,908.22 "/>
   <polygon class="fil1" points="446.82,935.78 463.44,935.78 463.44,930.25 452.31,930.25 452.31,924.76 463.44,924.76 463.44,919.24 452.31,919.24 452.31,913.74 463.44,913.74 463.44,908.22 446.82,908.22 "/>
   <polygon class="fil1" points="514.89,919.24 504.85,919.24 504.85,908.22 499.36,908.22 499.36,935.78 504.85,935.78 504.85,924.76 514.89,924.76 514.89,935.78 520.38,935.78 520.38,908.22 514.89,908.22 "/>
   <polygon class="fil1" points="544.74,935.78 561.35,935.78 561.35,930.25 550.22,930.25 550.22,924.76 561.35,924.76 561.35,919.24 550.22,919.24 550.22,913.74 561.35,913.74 561.35,908.22 544.74,908.22 "/>
   <path class="fil1" d="M602.22 916.51c0,-4.58 -3.67,-8.29 -8.26,-8.29l-8.25 0 0 27.56 5.49 0 0 -11.02 1.09 0 4.98 11.02 6.04 0 -5.42 -12c2.58,-1.38 4.32,-4.14 4.32,-7.27zm-8.25 2.73l-2.77 0 0 -5.49 2.77 0c1.53,0 2.77,1.24 2.77,2.77 -0.01,1.48 -1.24,2.73 -2.77,2.73z"/>
   <polygon class="fil1" points="627.12,935.78 643.74,935.78 643.74,930.25 632.61,930.25 632.61,924.76 643.74,924.76 643.74,919.24 632.61,919.24 632.61,913.74 643.74,913.74 643.74,908.22 627.12,908.22 "/>
   <path class="fil1" d="M42.18 808.65c6.57,0 12.68,2.56 17.14,6.79l11.91 -12.02c-7.57,-7.24 -17.8,-11.69 -29.05,-11.69 -23.26,0 -42.18,18.92 -42.18,42.18 0,23.26 18.92,42.18 42.18,42.18 11.24,0 21.48,-4.45 29.05,-11.69l-11.91 -11.91c-4.45,4.12 -10.57,6.68 -17.14,6.68 -14.02,0 -25.37,-11.24 -25.37,-25.27 0,-13.9 11.35,-25.25 25.37,-25.25z"/>
   <path class="fil1" d="M160.15 791.73c-23.26,0 -42.18,18.92 -42.18,42.18 0,23.26 18.92,42.18 42.18,42.18 23.26,0 42.18,-18.92 42.18,-42.18 0,-23.26 -18.92,-42.18 -42.18,-42.18zm0 67.56c-14.02,0 -25.37,-11.35 -25.37,-25.38 0,-13.91 11.35,-25.26 25.37,-25.26 13.91,0 25.27,11.35 25.27,25.26 0,14.02 -11.35,25.38 -25.27,25.38z"/>
   <polygon class="fil1" points="340.23,876.09 340.23,791.73 322.09,791.73 297.49,853.38 272.78,791.73 254.64,791.73 254.64,876.09 271.45,876.09 271.45,833.91 288.37,876.09 306.51,876.09 323.42,833.91 323.42,876.09 "/>
   <path class="fil1" d="M416.13 791.73l-23.59 0 0 84.36 16.81 0 0 -33.72 6.9 0c13.91,0 25.15,-11.35 25.15,-25.26 0,-14.03 -11.24,-25.38 -25.27,-25.38zm0 33.72l-6.79 0 0 -16.81 6.79 0c4.67,0 8.46,3.78 8.46,8.46 0,4.56 -3.78,8.35 -8.46,8.35z"/>
   <path class="fil1" d="M513.07 791.73l-30.49 84.36 17.92 0 8.57 -23.59 25.93 0 8.57 23.59 17.92 0 -30.49 -84.36 -17.92 0zm2.12 43.85l6.79 -19.03 6.9 19.03 -13.69 0z"/>
   <polygon class="fil1" points="664.99,848.04 631.26,791.73 611.57,791.73 611.57,876.09 628.37,876.09 628.37,819.89 662.21,876.09 681.79,876.09 681.79,791.73 664.99,791.73 "/>
   <polygon class="fil1" points="762.37,815.1 750.68,791.73 731.88,791.73 753.91,835.91 753.91,876.09 770.72,876.09 770.72,835.91 792.76,791.73 773.94,791.73 "/>
  </g>
 </g>
</svg>
